<svg width="95" height="83" viewBox="0 0 95 83" fill="none" xmlns="http://www.w3.org/2000/svg">
<path d="M28.6818 69.1364C24.6212 69.1364 21.1212 68.1742 18.1818 66.25C15.2424 64.3106 12.9773 61.5303 11.3864 57.9091C9.79545 54.2727 9.00758 49.9015 9.02273 44.7955C9.03788 39.6894 9.83333 35.3561 11.4091 31.7955C13 28.2197 15.2576 25.5 18.1818 23.6364C21.1212 21.7576 24.6212 20.8182 28.6818 20.8182C32.7424 20.8182 36.2424 21.7576 39.1818 23.6364C42.1364 25.5 44.4091 28.2197 46 31.7955C47.5909 35.3712 48.3788 39.7045 48.3636 44.7955C48.3636 49.9167 47.5682 54.2955 45.9773 57.9318C44.3864 61.5682 42.1212 64.3485 39.1818 66.2727C36.2576 68.1818 32.7576 69.1364 28.6818 69.1364ZM28.6818 59.9318C31.1061 59.9318 33.0682 58.697 34.5682 56.2273C36.0682 53.7424 36.8106 49.9318 36.7955 44.7955C36.7955 41.4318 36.4545 38.6591 35.7727 36.4773C35.0909 34.2803 34.1439 32.6439 32.9318 31.5682C31.7197 30.4924 30.303 29.9545 28.6818 29.9545C26.2727 29.9545 24.3258 31.1742 22.8409 33.6136C21.3561 36.0379 20.6061 39.7652 20.5909 44.7955C20.5758 48.2045 20.9015 51.0303 21.5682 53.2727C22.25 55.5152 23.2045 57.1894 24.4318 58.2955C25.6591 59.3864 27.0758 59.9318 28.6818 59.9318ZM72.5114 68.6364C68.9659 68.6364 65.822 68.0303 63.0795 66.8182C60.3523 65.5909 58.2008 63.9015 56.625 61.75C55.0492 59.5985 54.2462 57.1212 54.2159 54.3182H65.5341C65.5795 55.3333 65.9053 56.2348 66.5114 57.0227C67.1174 57.7955 67.9432 58.4015 68.9886 58.8409C70.0341 59.2803 71.2235 59.5 72.5568 59.5C73.8902 59.5 75.0644 59.2652 76.0795 58.7955C77.1098 58.3106 77.9129 57.6515 78.4886 56.8182C79.0644 55.9697 79.3447 55 79.3295 53.9091C79.3447 52.8182 79.0341 51.8485 78.3977 51C77.7614 50.1515 76.8598 49.4924 75.6932 49.0227C74.5417 48.553 73.178 48.3182 71.6023 48.3182H67.0795V40.3182H71.6023C72.9811 40.3182 74.1932 40.0909 75.2386 39.6364C76.2992 39.1818 77.125 38.5455 77.7159 37.7273C78.3068 36.8939 78.5947 35.9394 78.5795 34.8636C78.5947 33.8182 78.3447 32.9015 77.8295 32.1136C77.3295 31.3106 76.625 30.6894 75.7159 30.25C74.822 29.8106 73.7841 29.5909 72.6023 29.5909C71.3598 29.5909 70.2311 29.8106 69.2159 30.25C68.2159 30.6894 67.4205 31.3106 66.8295 32.1136C66.2386 32.9167 65.928 33.8485 65.8977 34.9091H55.1477C55.178 32.1364 55.9508 29.697 57.4659 27.5909C58.9811 25.4697 61.0417 23.8106 63.6477 22.6136C66.2689 21.4167 69.2538 20.8182 72.6023 20.8182C75.9356 20.8182 78.8674 21.4015 81.3977 22.5682C83.928 23.7348 85.8977 25.3258 87.3068 27.3409C88.7159 29.3409 89.4205 31.6061 89.4205 34.1364C89.4356 36.7576 88.5795 38.9167 86.8523 40.6136C85.1402 42.3106 82.9356 43.3561 80.2386 43.75V44.1136C83.8447 44.5379 86.5644 45.7045 88.3977 47.6136C90.2462 49.5227 91.1629 51.9091 91.1477 54.7727C91.1477 57.4697 90.3523 59.8636 88.7614 61.9545C87.1856 64.0303 84.9886 65.6667 82.1705 66.8636C79.3674 68.0455 76.1477 68.6364 72.5114 68.6364Z" fill="#00D6A3"/>
<path d="M22.6818 63.1364C18.6212 63.1364 15.1212 62.1742 12.1818 60.25C9.24242 58.3106 6.97727 55.5303 5.38636 51.9091C3.79545 48.2727 3.00758 43.9015 3.02273 38.7955C3.03788 33.6894 3.83333 29.3561 5.40909 25.7955C7 22.2197 9.25758 19.5 12.1818 17.6364C15.1212 15.7576 18.6212 14.8182 22.6818 14.8182C26.7424 14.8182 30.2424 15.7576 33.1818 17.6364C36.1364 19.5 38.4091 22.2197 40 25.7955C41.5909 29.3712 42.3788 33.7045 42.3636 38.7955C42.3636 43.9167 41.5682 48.2955 39.9773 51.9318C38.3864 55.5682 36.1212 58.3485 33.1818 60.2727C30.2576 62.1818 26.7576 63.1364 22.6818 63.1364ZM22.6818 53.9318C25.1061 53.9318 27.0682 52.697 28.5682 50.2273C30.0682 47.7424 30.8106 43.9318 30.7955 38.7955C30.7955 35.4318 30.4545 32.6591 29.7727 30.4773C29.0909 28.2803 28.1439 26.6439 26.9318 25.5682C25.7197 24.4924 24.303 23.9545 22.6818 23.9545C20.2727 23.9545 18.3258 25.1742 16.8409 27.6136C15.3561 30.0379 14.6061 33.7652 14.5909 38.7955C14.5758 42.2045 14.9015 45.0303 15.5682 47.2727C16.25 49.5152 17.2045 51.1894 18.4318 52.2955C19.6591 53.3864 21.0758 53.9318 22.6818 53.9318ZM66.5114 62.6364C62.9659 62.6364 59.822 62.0303 57.0795 60.8182C54.3523 59.5909 52.2008 57.9015 50.625 55.75C49.0492 53.5985 48.2462 51.1212 48.2159 48.3182H59.5341C59.5795 49.3333 59.9053 50.2348 60.5114 51.0227C61.1174 51.7955 61.9432 52.4015 62.9886 52.8409C64.0341 53.2803 65.2235 53.5 66.5568 53.5C67.8902 53.5 69.0644 53.2652 70.0795 52.7955C71.1098 52.3106 71.9129 51.6515 72.4886 50.8182C73.0644 49.9697 73.3447 49 73.3295 47.9091C73.3447 46.8182 73.0341 45.8485 72.3977 45C71.7614 44.1515 70.8598 43.4924 69.6932 43.0227C68.5417 42.553 67.178 42.3182 65.6023 42.3182H61.0795V34.3182H65.6023C66.9811 34.3182 68.1932 34.0909 69.2386 33.6364C70.2992 33.1818 71.125 32.5455 71.7159 31.7273C72.3068 30.8939 72.5947 29.9394 72.5795 28.8636C72.5947 27.8182 72.3447 26.9015 71.8295 26.1136C71.3295 25.3106 70.625 24.6894 69.7159 24.25C68.822 23.8106 67.7841 23.5909 66.6023 23.5909C65.3598 23.5909 64.2311 23.8106 63.2159 24.25C62.2159 24.6894 61.4205 25.3106 60.8295 26.1136C60.2386 26.9167 59.928 27.8485 59.8977 28.9091H49.1477C49.178 26.1364 49.9508 23.697 51.4659 21.5909C52.9811 19.4697 55.0417 17.8106 57.6477 16.6136C60.2689 15.4167 63.2538 14.8182 66.6023 14.8182C69.9356 14.8182 72.8674 15.4015 75.3977 16.5682C77.928 17.7348 79.8977 19.3258 81.3068 21.3409C82.7159 23.3409 83.4205 25.6061 83.4205 28.1364C83.4356 30.7576 82.5795 32.9167 80.8523 34.6136C79.1402 36.3106 76.9356 37.3561 74.2386 37.75V38.1136C77.8447 38.5379 80.5644 39.7045 82.3977 41.6136C84.2462 43.5227 85.1629 45.9091 85.1477 48.7727C85.1477 51.4697 84.3523 53.8636 82.7614 55.9545C81.1856 58.0303 78.9886 59.6667 76.1705 60.8636C73.3674 62.0455 70.1477 62.6364 66.5114 62.6364Z" fill="#F1F1F1"/>
</svg>
