<svg width="93" height="83" viewBox="0 0 93 83" fill="none" xmlns="http://www.w3.org/2000/svg">
<path d="M28.6818 69.1364C24.6212 69.1364 21.1212 68.1742 18.1818 66.25C15.2424 64.3106 12.9773 61.5303 11.3864 57.9091C9.79545 54.2727 9.00758 49.9015 9.02273 44.7955C9.03788 39.6894 9.83333 35.3561 11.4091 31.7955C13 28.2197 15.2576 25.5 18.1818 23.6364C21.1212 21.7576 24.6212 20.8182 28.6818 20.8182C32.7424 20.8182 36.2424 21.7576 39.1818 23.6364C42.1364 25.5 44.4091 28.2197 46 31.7955C47.5909 35.3712 48.3788 39.7045 48.3636 44.7955C48.3636 49.9167 47.5682 54.2955 45.9773 57.9318C44.3864 61.5682 42.1212 64.3485 39.1818 66.2727C36.2576 68.1818 32.7576 69.1364 28.6818 69.1364ZM28.6818 59.9318C31.1061 59.9318 33.0682 58.697 34.5682 56.2273C36.0682 53.7424 36.8106 49.9318 36.7955 44.7955C36.7955 41.4318 36.4545 38.6591 35.7727 36.4773C35.0909 34.2803 34.1439 32.6439 32.9318 31.5682C31.7197 30.4924 30.303 29.9545 28.6818 29.9545C26.2727 29.9545 24.3258 31.1742 22.8409 33.6136C21.3561 36.0379 20.6061 39.7652 20.5909 44.7955C20.5758 48.2045 20.9015 51.0303 21.5682 53.2727C22.25 55.5152 23.2045 57.1894 24.4318 58.2955C25.6591 59.3864 27.0758 59.9318 28.6818 59.9318ZM54.8068 68V59.9091L71.7841 45.0455C73.0568 43.8939 74.1402 42.8409 75.0341 41.8864C75.928 40.9167 76.6098 39.947 77.0795 38.9773C77.5492 37.9924 77.7841 36.9242 77.7841 35.7727C77.7841 34.4848 77.5038 33.3864 76.9432 32.4773C76.3826 31.553 75.6098 30.8409 74.625 30.3409C73.6402 29.8409 72.5114 29.5909 71.2386 29.5909C69.9508 29.5909 68.822 29.8561 67.8523 30.3864C66.8826 30.9015 66.125 31.6515 65.5795 32.6364C65.0492 33.6212 64.7841 34.8182 64.7841 36.2273H54.125C54.125 33.0606 54.8371 30.3258 56.2614 28.0227C57.6856 25.7197 59.6856 23.947 62.2614 22.7045C64.8523 21.447 67.8598 20.8182 71.2841 20.8182C74.8144 20.8182 77.8826 21.4091 80.4886 22.5909C83.0947 23.7727 85.1098 25.4242 86.5341 27.5455C87.9735 29.6515 88.6932 32.0985 88.6932 34.8864C88.6932 36.6591 88.3371 38.4167 87.625 40.1591C86.9129 41.9015 85.6326 43.8258 83.7841 45.9318C81.9508 48.0379 79.3447 50.5606 75.9659 53.5L70.3977 58.6364V58.9318H89.2614V68H54.8068Z" fill="#00D6A3"/>
<path d="M22.6818 63.1364C18.6212 63.1364 15.1212 62.1742 12.1818 60.25C9.24242 58.3106 6.97727 55.5303 5.38636 51.9091C3.79545 48.2727 3.00758 43.9015 3.02273 38.7955C3.03788 33.6894 3.83333 29.3561 5.40909 25.7955C7 22.2197 9.25758 19.5 12.1818 17.6364C15.1212 15.7576 18.6212 14.8182 22.6818 14.8182C26.7424 14.8182 30.2424 15.7576 33.1818 17.6364C36.1364 19.5 38.4091 22.2197 40 25.7955C41.5909 29.3712 42.3788 33.7045 42.3636 38.7955C42.3636 43.9167 41.5682 48.2955 39.9773 51.9318C38.3864 55.5682 36.1212 58.3485 33.1818 60.2727C30.2576 62.1818 26.7576 63.1364 22.6818 63.1364ZM22.6818 53.9318C25.1061 53.9318 27.0682 52.697 28.5682 50.2273C30.0682 47.7424 30.8106 43.9318 30.7955 38.7955C30.7955 35.4318 30.4545 32.6591 29.7727 30.4773C29.0909 28.2803 28.1439 26.6439 26.9318 25.5682C25.7197 24.4924 24.303 23.9545 22.6818 23.9545C20.2727 23.9545 18.3258 25.1742 16.8409 27.6136C15.3561 30.0379 14.6061 33.7652 14.5909 38.7955C14.5758 42.2045 14.9015 45.0303 15.5682 47.2727C16.25 49.5152 17.2045 51.1894 18.4318 52.2955C19.6591 53.3864 21.0758 53.9318 22.6818 53.9318ZM48.8068 62V53.9091L65.7841 39.0455C67.0568 37.8939 68.1402 36.8409 69.0341 35.8864C69.928 34.9167 70.6098 33.947 71.0795 32.9773C71.5492 31.9924 71.7841 30.9242 71.7841 29.7727C71.7841 28.4848 71.5038 27.3864 70.9432 26.4773C70.3826 25.553 69.6098 24.8409 68.625 24.3409C67.6402 23.8409 66.5114 23.5909 65.2386 23.5909C63.9508 23.5909 62.822 23.8561 61.8523 24.3864C60.8826 24.9015 60.125 25.6515 59.5795 26.6364C59.0492 27.6212 58.7841 28.8182 58.7841 30.2273H48.125C48.125 27.0606 48.8371 24.3258 50.2614 22.0227C51.6856 19.7197 53.6856 17.947 56.2614 16.7045C58.8523 15.447 61.8598 14.8182 65.2841 14.8182C68.8144 14.8182 71.8826 15.4091 74.4886 16.5909C77.0947 17.7727 79.1098 19.4242 80.5341 21.5455C81.9735 23.6515 82.6932 26.0985 82.6932 28.8864C82.6932 30.6591 82.3371 32.4167 81.625 34.1591C80.9129 35.9015 79.6326 37.8258 77.7841 39.9318C75.9508 42.0379 73.3447 44.5606 69.9659 47.5L64.3977 52.6364V52.9318H83.2614V62H48.8068Z" fill="#F1F1F1"/>
</svg>
