<svg width="267" height="77" viewBox="0 0 267 77" fill="none" xmlns="http://www.w3.org/2000/svg">
<path d="M28.6818 69.1364C24.6212 69.1364 21.1212 68.1742 18.1818 66.25C15.2424 64.3106 12.9773 61.5303 11.3864 57.9091C9.79545 54.2727 9.00758 49.9015 9.02273 44.7955C9.03788 39.6894 9.83333 35.3561 11.4091 31.7955C13 28.2197 15.2576 25.5 18.1818 23.6364C21.1212 21.7576 24.6212 20.8182 28.6818 20.8182C32.7424 20.8182 36.2424 21.7576 39.1818 23.6364C42.1364 25.5 44.4091 28.2197 46 31.7955C47.5909 35.3712 48.3788 39.7045 48.3636 44.7955C48.3636 49.9167 47.5682 54.2955 45.9773 57.9318C44.3864 61.5682 42.1212 64.3485 39.1818 66.2727C36.2576 68.1818 32.7576 69.1364 28.6818 69.1364ZM28.6818 59.9318C31.1061 59.9318 33.0682 58.697 34.5682 56.2273C36.0682 53.7424 36.8106 49.9318 36.7955 44.7955C36.7955 41.4318 36.4545 38.6591 35.7727 36.4773C35.0909 34.2803 34.1439 32.6439 32.9318 31.5682C31.7197 30.4924 30.303 29.9545 28.6818 29.9545C26.2727 29.9545 24.3258 31.1742 22.8409 33.6136C21.3561 36.0379 20.6061 39.7652 20.5909 44.7955C20.5758 48.2045 20.9015 51.0303 21.5682 53.2727C22.25 55.5152 23.2045 57.1894 24.4318 58.2955C25.6591 59.3864 27.0758 59.9318 28.6818 59.9318ZM76.3295 21.4545V68H65.1023V31.9545H64.8295L54.4205 38.3182V28.5909L65.8977 21.4545H76.3295Z" fill="#00D6A3"/>
<path d="M22.6818 63.1364C18.6212 63.1364 15.1212 62.1742 12.1818 60.25C9.24242 58.3106 6.97727 55.5303 5.38636 51.9091C3.79545 48.2727 3.00758 43.9015 3.02273 38.7955C3.03788 33.6894 3.83333 29.3561 5.40909 25.7955C7 22.2197 9.25758 19.5 12.1818 17.6364C15.1212 15.7576 18.6212 14.8182 22.6818 14.8182C26.7424 14.8182 30.2424 15.7576 33.1818 17.6364C36.1364 19.5 38.4091 22.2197 40 25.7955C41.5909 29.3712 42.3788 33.7045 42.3636 38.7955C42.3636 43.9167 41.5682 48.2955 39.9773 51.9318C38.3864 55.5682 36.1212 58.3485 33.1818 60.2727C30.2576 62.1818 26.7576 63.1364 22.6818 63.1364ZM22.6818 53.9318C25.1061 53.9318 27.0682 52.697 28.5682 50.2273C30.0682 47.7424 30.8106 43.9318 30.7955 38.7955C30.7955 35.4318 30.4545 32.6591 29.7727 30.4773C29.0909 28.2803 28.1439 26.6439 26.9318 25.5682C25.7197 24.4924 24.303 23.9545 22.6818 23.9545C20.2727 23.9545 18.3258 25.1742 16.8409 27.6136C15.3561 30.0379 14.6061 33.7652 14.5909 38.7955C14.5758 42.2045 14.9015 45.0303 15.5682 47.2727C16.25 49.5152 17.2045 51.1894 18.4318 52.2955C19.6591 53.3864 21.0758 53.9318 22.6818 53.9318ZM70.3295 15.4545V62H59.1023V25.9545H58.8295L48.4205 32.3182V22.5909L59.8977 15.4545H70.3295Z" fill="#F1F1F1"/>
<path d="M97.3281 38.1562L104.453 31.0938C104.495 30.9688 104.516 30.8542 104.516 30.75C104.516 30.4583 104.391 30.2656 104.141 30.1719C103.891 30.0781 103.51 30.0052 103 29.9531C102.594 29.9115 102.292 29.8594 102.094 29.7969C101.906 29.7344 101.812 29.6146 101.812 29.4375C101.812 29.4062 101.839 29.3125 101.891 29.1562H110.703L110.766 29.4375C110.766 29.5729 110.568 29.7083 110.172 29.8438C109.776 29.9792 109.234 30.1198 108.547 30.2656C107.547 30.4844 106.807 30.7917 106.328 31.1875L100.266 37.4062L107.578 47.4688C107.714 47.6146 107.943 47.7552 108.266 47.8906C108.599 48.0156 109.042 48.1667 109.594 48.3438C110.177 48.5208 110.62 48.6771 110.922 48.8125C111.234 48.9479 111.391 49.0833 111.391 49.2188C111.391 49.3333 111.37 49.4271 111.328 49.5H100.641C100.578 49.3646 100.547 49.276 100.547 49.2344C100.547 49.0781 100.641 48.9688 100.828 48.9062C101.026 48.8333 101.333 48.7656 101.75 48.7031C102.25 48.6302 102.625 48.5469 102.875 48.4531C103.135 48.349 103.266 48.1667 103.266 47.9062C103.266 47.8021 103.177 47.6354 103 47.4062L97.3906 39.1875H95.9844V47.5625C95.9844 47.8854 96.0885 48.1302 96.2969 48.2969C96.5156 48.4531 96.776 48.5573 97.0781 48.6094C97.3802 48.651 97.7656 48.6823 98.2344 48.7031C98.7448 48.7344 99.1146 48.7812 99.3438 48.8438C99.5729 48.8958 99.6875 49.0156 99.6875 49.2031C99.6875 49.224 99.6615 49.3229 99.6094 49.5H89.1406C89.099 49.375 89.0781 49.2865 89.0781 49.2344C89.0781 49.0573 89.1927 48.9375 89.4219 48.875C89.651 48.8021 90 48.7396 90.4688 48.6875C90.9271 48.625 91.2969 48.5625 91.5781 48.5C91.8594 48.4375 92.1042 48.3229 92.3125 48.1562C92.5208 47.9896 92.625 47.7604 92.625 47.4688V31.2812C92.625 30.875 92.4323 30.5885 92.0469 30.4219C91.6615 30.2552 91.1198 30.1198 90.4219 30.0156C89.9427 29.9323 89.5938 29.8542 89.375 29.7812C89.1667 29.7083 89.0625 29.5938 89.0625 29.4375C89.0625 29.4062 89.0885 29.3125 89.1406 29.1562H99.5469C99.5885 29.2917 99.6094 29.3802 99.6094 29.4219C99.6094 29.599 99.4948 29.724 99.2656 29.7969C99.0365 29.8698 98.6771 29.9427 98.1875 30.0156C97.7188 30.0885 97.3385 30.1615 97.0469 30.2344C96.7552 30.3073 96.5052 30.4271 96.2969 30.5938C96.0885 30.7604 95.9844 30.9896 95.9844 31.2812V38.1562H97.3281ZM117.297 45.7031L120.156 38.75C119.958 38.0417 119.641 37.4479 119.203 36.9688C118.766 36.4896 118.208 36.2344 117.531 36.2031L117.562 35.4531H124.469C124.49 35.8073 124.5 36.0573 124.5 36.2031C124.365 36.2656 124.151 36.349 123.859 36.4531C123.464 36.5885 123.172 36.724 122.984 36.8594C122.797 36.9948 122.703 37.2083 122.703 37.5C122.703 37.7188 122.797 38.0833 122.984 38.5938L125.531 45.5781L127.969 39C128.167 38.4896 128.266 38.0625 128.266 37.7188C128.266 37.4062 128.219 37.1719 128.125 37.0156C128.031 36.849 127.901 36.7292 127.734 36.6562C127.568 36.5833 127.307 36.5 126.953 36.4062L126.375 36.25C126.354 36.1042 126.344 35.9792 126.344 35.875C126.344 35.7812 126.354 35.6406 126.375 35.4531H131.859V36.2812C131.568 36.3229 131.245 36.4531 130.891 36.6719C130.547 36.8906 130.234 37.1562 129.953 37.4688C129.682 37.7708 129.495 38.0625 129.391 38.3438L125.172 49.7188C125.068 49.7812 124.911 49.8125 124.703 49.8125C124.505 49.8125 124.344 49.7812 124.219 49.7188L120.672 40.1875L116.906 49.7188C116.781 49.7812 116.62 49.8125 116.422 49.8125C116.203 49.8125 116.036 49.7812 115.922 49.7188L111.562 38.5781C111.365 38.0677 111.188 37.6719 111.031 37.3906C110.875 37.1094 110.667 36.8698 110.406 36.6719C110.156 36.4635 109.823 36.3125 109.406 36.2188L109.438 35.4531H115.875C115.885 35.6302 115.891 35.8802 115.891 36.2031C115.391 36.3698 115 36.5573 114.719 36.7656C114.448 36.974 114.312 37.2708 114.312 37.6562C114.312 37.8333 114.339 38 114.391 38.1562C114.391 38.1979 114.396 38.2344 114.406 38.2656L117.297 45.7031ZM136.609 28C137.109 28 137.536 28.1771 137.891 28.5312C138.245 28.8854 138.422 29.3125 138.422 29.8125C138.422 30.3229 138.245 30.7552 137.891 31.1094C137.536 31.4531 137.109 31.625 136.609 31.625C136.099 31.625 135.667 31.4531 135.312 31.1094C134.969 30.7552 134.797 30.3229 134.797 29.8125C134.797 29.3125 134.969 28.8854 135.312 28.5312C135.667 28.1771 136.099 28 136.609 28ZM135.359 38.1406C135.224 37.901 134.969 37.6875 134.594 37.5C134.229 37.3021 133.849 37.1406 133.453 37.0156C133.068 36.8802 132.875 36.8177 132.875 36.8281L132.906 36.2812L137.297 35.2188L138.266 35.1562V46.0625C138.266 46.4271 138.302 46.7708 138.375 47.0938C138.458 47.4167 138.698 47.7448 139.094 48.0781C139.5 48.4115 140.135 48.625 141 48.7188C141 49.0625 140.995 49.3229 140.984 49.5H132.828C132.807 49.3125 132.797 49.0521 132.797 48.7188L133.234 48.5938C133.693 48.4688 134.062 48.3438 134.344 48.2188C134.625 48.0938 134.865 47.9115 135.062 47.6719C135.26 47.4219 135.359 47.0885 135.359 46.6719V38.1406ZM142.578 49.5L142.562 49C142.562 48.8333 142.568 48.7188 142.578 48.6562C143.182 48.5104 143.635 48.3802 143.938 48.2656C144.25 48.151 144.505 47.9635 144.703 47.7031C144.901 47.4427 145 47.0781 145 46.6094V31.3125C144.896 31.1562 144.667 30.9688 144.312 30.75C143.958 30.5208 143.583 30.3177 143.188 30.1406C142.802 29.9635 142.516 29.8646 142.328 29.8438V29.2969L146.797 28.1094L147.906 28V42.0781H149.188L154.188 37.1719C154.208 37.1198 154.219 37.0625 154.219 37C154.219 36.7604 154.12 36.6042 153.922 36.5312C153.734 36.4479 153.448 36.3854 153.062 36.3438C152.76 36.3125 152.542 36.276 152.406 36.2344C152.271 36.1927 152.203 36.1042 152.203 35.9688C152.203 35.8229 152.219 35.651 152.25 35.4531H158.875L158.922 35.9688C158.922 36.1875 158.49 36.3854 157.625 36.5625C156.917 36.7083 156.385 36.9323 156.031 37.2344L151.719 41.6562L155.844 47C156.167 47.4271 156.578 47.7656 157.078 48.0156C157.578 48.2656 158.042 48.4375 158.469 48.5312C158.906 48.625 159.208 48.6719 159.375 48.6719L159.328 49.5H151.594C151.583 49.4167 151.562 49.2604 151.531 49.0312C151.51 48.8021 151.505 48.6875 151.516 48.6875C152.12 48.6875 152.531 48.6198 152.75 48.4844C152.969 48.3385 153.078 48.1771 153.078 48C153.078 47.9062 153.01 47.7865 152.875 47.6406L149.234 42.9375H147.906V46.0312C147.906 46.9271 148.13 47.5781 148.578 47.9844C149.036 48.3802 149.729 48.625 150.656 48.7188C150.656 48.875 150.651 49.0312 150.641 49.1875C150.63 49.3438 150.625 49.4479 150.625 49.5H142.578ZM171.672 28C172.172 28 172.599 28.1771 172.953 28.5312C173.307 28.8854 173.484 29.3125 173.484 29.8125C173.484 30.3229 173.307 30.7552 172.953 31.1094C172.599 31.4531 172.172 31.625 171.672 31.625C171.161 31.625 170.729 31.4531 170.375 31.1094C170.031 30.7552 169.859 30.3229 169.859 29.8125C169.859 29.3125 170.031 28.8854 170.375 28.5312C170.729 28.1771 171.161 28 171.672 28ZM170.422 38.1406C170.286 37.901 170.031 37.6875 169.656 37.5C169.292 37.3021 168.911 37.1406 168.516 37.0156C168.13 36.8802 167.938 36.8177 167.938 36.8281L167.969 36.2812L172.359 35.2188L173.328 35.1562V46.0625C173.328 46.4271 173.365 46.7708 173.438 47.0938C173.521 47.4167 173.76 47.7448 174.156 48.0781C174.562 48.4115 175.198 48.625 176.062 48.7188C176.062 49.0625 176.057 49.3229 176.047 49.5H167.891C167.87 49.3125 167.859 49.0521 167.859 48.7188L168.297 48.5938C168.755 48.4688 169.125 48.3438 169.406 48.2188C169.688 48.0938 169.927 47.9115 170.125 47.6719C170.323 47.4219 170.422 47.0885 170.422 46.6719V38.1406ZM182.391 46.0312C182.391 46.9271 182.615 47.5781 183.062 47.9844C183.521 48.3802 184.214 48.625 185.141 48.7188C185.141 48.875 185.135 49.0312 185.125 49.1875C185.115 49.3438 185.109 49.4479 185.109 49.5H177.062L177.047 49C177.047 48.8333 177.052 48.7188 177.062 48.6562C177.667 48.5104 178.12 48.3802 178.422 48.2656C178.734 48.151 178.99 47.9635 179.188 47.7031C179.385 47.4427 179.484 47.0781 179.484 46.6094V38.1406C179.359 37.901 179.115 37.6875 178.75 37.5C178.385 37.3021 178 37.1406 177.594 37.0156C177.198 36.8802 177 36.8177 177 36.8281L177.047 36.2969L181.312 35.2344L182.266 35.1719L182.438 37.7031C183.01 36.9323 183.74 36.2969 184.625 35.7969C185.521 35.2865 186.484 35.0312 187.516 35.0312C189.026 35.0312 190.198 35.4583 191.031 36.3125C191.865 37.1667 192.318 38.4427 192.391 40.1406C192.422 40.8073 192.438 41.4896 192.438 42.1875V45.6719C192.438 46.4323 192.484 46.9844 192.578 47.3281C192.672 47.6719 192.818 47.9115 193.016 48.0469C193.224 48.1719 193.568 48.3073 194.047 48.4531L194.703 48.6562C194.714 48.7188 194.719 48.8333 194.719 49L194.703 49.5H187C187 49.4375 186.995 49.3333 186.984 49.1875C186.974 49.0312 186.969 48.875 186.969 48.7188C187.042 48.6875 187.25 48.625 187.594 48.5312C188.146 48.375 188.573 48.2083 188.875 48.0312C189.188 47.8542 189.375 47.5677 189.438 47.1719C189.49 46.8698 189.516 46.4688 189.516 45.9688V42.4844C189.516 41.099 189.464 40.0312 189.359 39.2812C189.266 38.5312 189.005 37.9167 188.578 37.4375C188.161 36.9583 187.484 36.7188 186.547 36.7188C185.807 36.7188 185.094 36.9323 184.406 37.3594C183.729 37.7865 183.057 38.3542 182.391 39.0625V46.0312ZM202.406 49.6875C202.281 49.75 202.125 49.7812 201.938 49.7812C201.74 49.7812 201.583 49.75 201.469 49.6875L196.688 38.1875C196.51 37.75 196.349 37.4271 196.203 37.2188C196.057 37 195.917 36.849 195.781 36.7656C195.646 36.6823 195.453 36.6042 195.203 36.5312C194.943 36.4479 194.703 36.3594 194.484 36.2656V35.4531H201.516C201.516 35.5365 201.526 35.6615 201.547 35.8281C201.578 35.9948 201.594 36.151 201.594 36.2969C200.917 36.4844 200.411 36.6667 200.078 36.8438C199.745 37.0208 199.578 37.2812 199.578 37.625C199.578 37.7292 199.604 37.8698 199.656 38.0469L202.844 45.9062L205.531 39.3594C205.823 38.6406 205.969 38.0885 205.969 37.7031C205.938 37.3385 205.76 37.0625 205.438 36.875C205.125 36.6771 204.625 36.4948 203.938 36.3281C203.927 36.2656 203.922 36.1458 203.922 35.9688C203.922 35.8438 203.922 35.7344 203.922 35.6406C203.932 35.5469 203.938 35.4844 203.938 35.4531H209.75C209.771 35.6302 209.781 35.8958 209.781 36.25C209.583 36.3646 209.391 36.4583 209.203 36.5312C208.901 36.6667 208.651 36.7969 208.453 36.9219C208.266 37.0365 208.062 37.2188 207.844 37.4688C207.635 37.7188 207.438 38.0521 207.25 38.4688L202.406 49.6875ZM218.328 35.0312C219.714 35.0312 220.974 35.3333 222.109 35.9375C223.255 36.5312 224.161 37.3854 224.828 38.5C225.495 39.6042 225.828 40.8906 225.828 42.3594C225.828 43.8281 225.495 45.1302 224.828 46.2656C224.161 47.3906 223.271 48.2656 222.156 48.8906C221.042 49.5052 219.823 49.8125 218.5 49.8125C217.188 49.8125 215.958 49.4948 214.812 48.8594C213.667 48.224 212.75 47.3438 212.062 46.2188C211.375 45.0833 211.031 43.8021 211.031 42.375C211.031 40.9479 211.365 39.6771 212.031 38.5625C212.698 37.4375 213.589 36.5677 214.703 35.9531C215.828 35.3385 217.036 35.0312 218.328 35.0312ZM218.703 48.5938C220.026 48.5938 221.031 48.1198 221.719 47.1719C222.406 46.224 222.75 44.9792 222.75 43.4375C222.75 42.1042 222.562 40.8802 222.188 39.7656C221.823 38.6406 221.297 37.7448 220.609 37.0781C219.922 36.4115 219.13 36.0781 218.234 36.0781C217.443 36.0781 216.74 36.2708 216.125 36.6562C215.521 37.0417 215.042 37.6354 214.688 38.4375C214.333 39.2396 214.156 40.2448 214.156 41.4531C214.156 42.6406 214.344 43.7865 214.719 44.8906C215.094 45.9844 215.625 46.875 216.312 47.5625C217 48.25 217.797 48.5938 218.703 48.5938ZM231.703 28C232.203 28 232.63 28.1771 232.984 28.5312C233.339 28.8854 233.516 29.3125 233.516 29.8125C233.516 30.3229 233.339 30.7552 232.984 31.1094C232.63 31.4531 232.203 31.625 231.703 31.625C231.193 31.625 230.76 31.4531 230.406 31.1094C230.062 30.7552 229.891 30.3229 229.891 29.8125C229.891 29.3125 230.062 28.8854 230.406 28.5312C230.76 28.1771 231.193 28 231.703 28ZM230.453 38.1406C230.318 37.901 230.062 37.6875 229.688 37.5C229.323 37.3021 228.943 37.1406 228.547 37.0156C228.161 36.8802 227.969 36.8177 227.969 36.8281L228 36.2812L232.391 35.2188L233.359 35.1562V46.0625C233.359 46.4271 233.396 46.7708 233.469 47.0938C233.552 47.4167 233.792 47.7448 234.188 48.0781C234.594 48.4115 235.229 48.625 236.094 48.7188C236.094 49.0625 236.089 49.3229 236.078 49.5H227.922C227.901 49.3125 227.891 49.0521 227.891 48.7188L228.328 48.5938C228.786 48.4688 229.156 48.3438 229.438 48.2188C229.719 48.0938 229.958 47.9115 230.156 47.6719C230.354 47.4219 230.453 47.0885 230.453 46.6719V38.1406ZM250.141 46.5625C249.922 47.2604 249.531 47.8542 248.969 48.3438C248.406 48.8333 247.745 49.2031 246.984 49.4531C246.224 49.6927 245.432 49.8125 244.609 49.8125C243.172 49.8125 241.927 49.4792 240.875 48.8125C239.833 48.1354 239.042 47.2396 238.5 46.125C237.958 45.0104 237.688 43.8021 237.688 42.5C237.688 41.125 238.016 39.8698 238.672 38.7344C239.328 37.5885 240.25 36.6875 241.438 36.0312C242.625 35.3646 243.974 35.0312 245.484 35.0312C246.359 35.0312 247.161 35.1615 247.891 35.4219C248.62 35.6719 249.193 36.0312 249.609 36.5C250.036 36.9688 250.25 37.5104 250.25 38.125C250.25 38.5938 250.099 38.9375 249.797 39.1562C249.495 39.3646 249.172 39.4688 248.828 39.4688C248.505 39.4688 248.255 39.4115 248.078 39.2969C247.901 39.1719 247.771 39.026 247.688 38.8594C247.615 38.6823 247.542 38.4375 247.469 38.125C247.385 37.7292 247.281 37.4062 247.156 37.1562C247.042 36.9062 246.823 36.6875 246.5 36.5C246.177 36.3125 245.714 36.2083 245.109 36.1875C244.307 36.1562 243.557 36.3542 242.859 36.7812C242.161 37.1979 241.599 37.8229 241.172 38.6562C240.755 39.4896 240.547 40.4896 240.547 41.6562C240.547 42.7396 240.74 43.7344 241.125 44.6406C241.51 45.5469 242.073 46.2708 242.812 46.8125C243.562 47.3542 244.458 47.625 245.5 47.625C246.406 47.625 247.161 47.5156 247.766 47.2969C248.37 47.0781 248.995 46.7135 249.641 46.2031L250.141 46.5625ZM255.766 41.2812C255.755 41.3854 255.75 41.5365 255.75 41.7344C255.75 43.0469 255.984 44.1458 256.453 45.0312C256.932 45.9062 257.568 46.5573 258.359 46.9844C259.161 47.401 260.057 47.6094 261.047 47.6094C262.359 47.6094 263.625 47.2344 264.844 46.4844L265.297 46.9219C265.047 47.526 264.625 48.0469 264.031 48.4844C263.448 48.9219 262.781 49.2552 262.031 49.4844C261.292 49.7031 260.573 49.8125 259.875 49.8125C258.562 49.8125 257.38 49.5052 256.328 48.8906C255.286 48.276 254.469 47.4167 253.875 46.3125C253.292 45.2083 253 43.9427 253 42.5156C253 41.0677 253.318 39.776 253.953 38.6406C254.589 37.4948 255.432 36.6094 256.484 35.9844C257.547 35.349 258.682 35.0312 259.891 35.0312C260.88 35.0312 261.771 35.2344 262.562 35.6406C263.365 36.0365 264.016 36.599 264.516 37.3281C265.016 38.0469 265.333 38.875 265.469 39.8125C265.583 40.2917 265.641 40.7344 265.641 41.1406V41.2812H255.766ZM261.391 40.2812C261.849 40.2604 262.234 40.1771 262.547 40.0312C262.474 38.7917 262.182 37.8229 261.672 37.125C261.172 36.4271 260.458 36.0781 259.531 36.0781C258.854 36.0781 258.25 36.2812 257.719 36.6875C257.198 37.0938 256.776 37.6354 256.453 38.3125C256.13 38.9792 255.922 39.7135 255.828 40.5156L261.391 40.2812Z" fill="#F1F1F1"/>
</svg>
