<svg width="326" height="77" viewBox="0 0 326 77" fill="none" xmlns="http://www.w3.org/2000/svg">
<path d="M28.6818 69.1364C24.6212 69.1364 21.1212 68.1742 18.1818 66.25C15.2424 64.3106 12.9773 61.5303 11.3864 57.9091C9.79545 54.2727 9.00758 49.9015 9.02273 44.7955C9.03788 39.6894 9.83333 35.3561 11.4091 31.7955C13 28.2197 15.2576 25.5 18.1818 23.6364C21.1212 21.7576 24.6212 20.8182 28.6818 20.8182C32.7424 20.8182 36.2424 21.7576 39.1818 23.6364C42.1364 25.5 44.4091 28.2197 46 31.7955C47.5909 35.3712 48.3788 39.7045 48.3636 44.7955C48.3636 49.9167 47.5682 54.2955 45.9773 57.9318C44.3864 61.5682 42.1212 64.3485 39.1818 66.2727C36.2576 68.1818 32.7576 69.1364 28.6818 69.1364ZM28.6818 59.9318C31.1061 59.9318 33.0682 58.697 34.5682 56.2273C36.0682 53.7424 36.8106 49.9318 36.7955 44.7955C36.7955 41.4318 36.4545 38.6591 35.7727 36.4773C35.0909 34.2803 34.1439 32.6439 32.9318 31.5682C31.7197 30.4924 30.303 29.9545 28.6818 29.9545C26.2727 29.9545 24.3258 31.1742 22.8409 33.6136C21.3561 36.0379 20.6061 39.7652 20.5909 44.7955C20.5758 48.2045 20.9015 51.0303 21.5682 53.2727C22.25 55.5152 23.2045 57.1894 24.4318 58.2955C25.6591 59.3864 27.0758 59.9318 28.6818 59.9318ZM72.5114 68.6364C68.9659 68.6364 65.822 68.0303 63.0795 66.8182C60.3523 65.5909 58.2008 63.9015 56.625 61.75C55.0492 59.5985 54.2462 57.1212 54.2159 54.3182H65.5341C65.5795 55.3333 65.9053 56.2348 66.5114 57.0227C67.1174 57.7955 67.9432 58.4015 68.9886 58.8409C70.0341 59.2803 71.2235 59.5 72.5568 59.5C73.8902 59.5 75.0644 59.2652 76.0795 58.7955C77.1098 58.3106 77.9129 57.6515 78.4886 56.8182C79.0644 55.9697 79.3447 55 79.3295 53.9091C79.3447 52.8182 79.0341 51.8485 78.3977 51C77.7614 50.1515 76.8598 49.4924 75.6932 49.0227C74.5417 48.553 73.178 48.3182 71.6023 48.3182H67.0795V40.3182H71.6023C72.9811 40.3182 74.1932 40.0909 75.2386 39.6364C76.2992 39.1818 77.125 38.5455 77.7159 37.7273C78.3068 36.8939 78.5947 35.9394 78.5795 34.8636C78.5947 33.8182 78.3447 32.9015 77.8295 32.1136C77.3295 31.3106 76.625 30.6894 75.7159 30.25C74.822 29.8106 73.7841 29.5909 72.6023 29.5909C71.3598 29.5909 70.2311 29.8106 69.2159 30.25C68.2159 30.6894 67.4205 31.3106 66.8295 32.1136C66.2386 32.9167 65.928 33.8485 65.8977 34.9091H55.1477C55.178 32.1364 55.9508 29.697 57.4659 27.5909C58.9811 25.4697 61.0417 23.8106 63.6477 22.6136C66.2689 21.4167 69.2538 20.8182 72.6023 20.8182C75.9356 20.8182 78.8674 21.4015 81.3977 22.5682C83.928 23.7348 85.8977 25.3258 87.3068 27.3409C88.7159 29.3409 89.4205 31.6061 89.4205 34.1364C89.4356 36.7576 88.5795 38.9167 86.8523 40.6136C85.1402 42.3106 82.9356 43.3561 80.2386 43.75V44.1136C83.8447 44.5379 86.5644 45.7045 88.3977 47.6136C90.2462 49.5227 91.1629 51.9091 91.1477 54.7727C91.1477 57.4697 90.3523 59.8636 88.7614 61.9545C87.1856 64.0303 84.9886 65.6667 82.1705 66.8636C79.3674 68.0455 76.1477 68.6364 72.5114 68.6364Z" fill="#00D6A3"/>
<path d="M22.6818 63.1364C18.6212 63.1364 15.1212 62.1742 12.1818 60.25C9.24242 58.3106 6.97727 55.5303 5.38636 51.9091C3.79545 48.2727 3.00758 43.9015 3.02273 38.7955C3.03788 33.6894 3.83333 29.3561 5.40909 25.7955C7 22.2197 9.25758 19.5 12.1818 17.6364C15.1212 15.7576 18.6212 14.8182 22.6818 14.8182C26.7424 14.8182 30.2424 15.7576 33.1818 17.6364C36.1364 19.5 38.4091 22.2197 40 25.7955C41.5909 29.3712 42.3788 33.7045 42.3636 38.7955C42.3636 43.9167 41.5682 48.2955 39.9773 51.9318C38.3864 55.5682 36.1212 58.3485 33.1818 60.2727C30.2576 62.1818 26.7576 63.1364 22.6818 63.1364ZM22.6818 53.9318C25.1061 53.9318 27.0682 52.697 28.5682 50.2273C30.0682 47.7424 30.8106 43.9318 30.7955 38.7955C30.7955 35.4318 30.4545 32.6591 29.7727 30.4773C29.0909 28.2803 28.1439 26.6439 26.9318 25.5682C25.7197 24.4924 24.303 23.9545 22.6818 23.9545C20.2727 23.9545 18.3258 25.1742 16.8409 27.6136C15.3561 30.0379 14.6061 33.7652 14.5909 38.7955C14.5758 42.2045 14.9015 45.0303 15.5682 47.2727C16.25 49.5152 17.2045 51.1894 18.4318 52.2955C19.6591 53.3864 21.0758 53.9318 22.6818 53.9318ZM66.5114 62.6364C62.9659 62.6364 59.822 62.0303 57.0795 60.8182C54.3523 59.5909 52.2008 57.9015 50.625 55.75C49.0492 53.5985 48.2462 51.1212 48.2159 48.3182H59.5341C59.5795 49.3333 59.9053 50.2348 60.5114 51.0227C61.1174 51.7955 61.9432 52.4015 62.9886 52.8409C64.0341 53.2803 65.2235 53.5 66.5568 53.5C67.8902 53.5 69.0644 53.2652 70.0795 52.7955C71.1098 52.3106 71.9129 51.6515 72.4886 50.8182C73.0644 49.9697 73.3447 49 73.3295 47.9091C73.3447 46.8182 73.0341 45.8485 72.3977 45C71.7614 44.1515 70.8598 43.4924 69.6932 43.0227C68.5417 42.553 67.178 42.3182 65.6023 42.3182H61.0795V34.3182H65.6023C66.9811 34.3182 68.1932 34.0909 69.2386 33.6364C70.2992 33.1818 71.125 32.5455 71.7159 31.7273C72.3068 30.8939 72.5947 29.9394 72.5795 28.8636C72.5947 27.8182 72.3447 26.9015 71.8295 26.1136C71.3295 25.3106 70.625 24.6894 69.7159 24.25C68.822 23.8106 67.7841 23.5909 66.6023 23.5909C65.3598 23.5909 64.2311 23.8106 63.2159 24.25C62.2159 24.6894 61.4205 25.3106 60.8295 26.1136C60.2386 26.9167 59.928 27.8485 59.8977 28.9091H49.1477C49.178 26.1364 49.9508 23.697 51.4659 21.5909C52.9811 19.4697 55.0417 17.8106 57.6477 16.6136C60.2689 15.4167 63.2538 14.8182 66.6023 14.8182C69.9356 14.8182 72.8674 15.4015 75.3977 16.5682C77.928 17.7348 79.8977 19.3258 81.3068 21.3409C82.7159 23.3409 83.4205 25.6061 83.4205 28.1364C83.4356 30.7576 82.5795 32.9167 80.8523 34.6136C79.1402 36.3106 76.9356 37.3561 74.2386 37.75V38.1136C77.8447 38.5379 80.5644 39.7045 82.3977 41.6136C84.2462 43.5227 85.1629 45.9091 85.1477 48.7727C85.1477 51.4697 84.3523 53.8636 82.7614 55.9545C81.1856 58.0303 78.9886 59.6667 76.1705 60.8636C73.3674 62.0455 70.1477 62.6364 66.5114 62.6364Z" fill="#F1F1F1"/>
<path d="M124.077 38.0293L132.538 29.6426C132.588 29.4941 132.612 29.3581 132.612 29.2344C132.612 28.888 132.464 28.6592 132.167 28.5479C131.87 28.4365 131.419 28.3499 130.812 28.2881C130.33 28.2386 129.971 28.1768 129.736 28.1025C129.514 28.0283 129.402 27.8861 129.402 27.6758C129.402 27.6387 129.433 27.5273 129.495 27.3418H139.96L140.034 27.6758C140.034 27.8366 139.799 27.9974 139.329 28.1582C138.859 28.319 138.216 28.486 137.399 28.6592C136.212 28.9189 135.334 29.2839 134.765 29.7539L127.565 37.1387L136.249 49.0879C136.41 49.2611 136.682 49.4281 137.065 49.5889C137.461 49.7373 137.987 49.9167 138.643 50.127C139.335 50.3372 139.861 50.5228 140.22 50.6836C140.591 50.8444 140.776 51.0052 140.776 51.166C140.776 51.3021 140.752 51.4134 140.702 51.5H128.011C127.937 51.3392 127.899 51.234 127.899 51.1846C127.899 50.999 128.011 50.8691 128.233 50.7949C128.468 50.7083 128.833 50.6279 129.328 50.5537C129.922 50.4671 130.367 50.3682 130.664 50.2568C130.973 50.1331 131.128 49.9167 131.128 49.6074C131.128 49.4837 131.023 49.2858 130.812 49.0137L124.151 39.2539H122.481V49.1992C122.481 49.5827 122.605 49.8734 122.853 50.0713C123.112 50.2568 123.422 50.3805 123.78 50.4424C124.139 50.4919 124.597 50.529 125.153 50.5537C125.759 50.5908 126.199 50.6465 126.471 50.7207C126.743 50.7826 126.879 50.9248 126.879 51.1475C126.879 51.1722 126.848 51.2897 126.786 51.5H114.354C114.305 51.3516 114.28 51.2464 114.28 51.1846C114.28 50.9743 114.416 50.832 114.688 50.7578C114.961 50.6712 115.375 50.597 115.932 50.5352C116.476 50.4609 116.915 50.3867 117.249 50.3125C117.583 50.2383 117.874 50.1022 118.121 49.9043C118.368 49.7064 118.492 49.4342 118.492 49.0879V29.8652C118.492 29.3828 118.263 29.0426 117.806 28.8447C117.348 28.6468 116.705 28.486 115.876 28.3623C115.307 28.2633 114.893 28.1706 114.633 28.084C114.385 27.9974 114.262 27.8613 114.262 27.6758C114.262 27.6387 114.293 27.5273 114.354 27.3418H126.712C126.761 27.5026 126.786 27.6077 126.786 27.6572C126.786 27.8675 126.65 28.016 126.378 28.1025C126.106 28.1891 125.679 28.2757 125.098 28.3623C124.541 28.4489 124.09 28.5355 123.743 28.6221C123.397 28.7087 123.1 28.8509 122.853 29.0488C122.605 29.2467 122.481 29.5189 122.481 29.8652V38.0293H124.077ZM147.79 46.9912L151.186 38.7344C150.951 37.8932 150.573 37.1882 150.054 36.6191C149.534 36.0501 148.872 35.7471 148.068 35.71L148.105 34.8193H156.307C156.331 35.2399 156.344 35.5368 156.344 35.71C156.183 35.7842 155.929 35.8831 155.583 36.0068C155.113 36.1676 154.767 36.3285 154.544 36.4893C154.321 36.6501 154.21 36.9036 154.21 37.25C154.21 37.5098 154.321 37.9427 154.544 38.5488L157.568 46.8428L160.463 39.0312C160.698 38.4251 160.815 37.918 160.815 37.5098C160.815 37.1387 160.76 36.8604 160.648 36.6748C160.537 36.4769 160.382 36.3346 160.185 36.248C159.987 36.1615 159.677 36.0625 159.257 35.9512L158.57 35.7656C158.546 35.5924 158.533 35.444 158.533 35.3203C158.533 35.209 158.546 35.042 158.57 34.8193H165.083V35.8027C164.737 35.8522 164.353 36.0068 163.933 36.2666C163.524 36.5264 163.153 36.8418 162.819 37.2129C162.498 37.5716 162.275 37.918 162.151 38.252L157.142 51.7598C157.018 51.834 156.832 51.8711 156.585 51.8711C156.35 51.8711 156.158 51.834 156.01 51.7598L151.798 40.4414L147.326 51.7598C147.178 51.834 146.986 51.8711 146.751 51.8711C146.491 51.8711 146.293 51.834 146.157 51.7598L140.98 38.5303C140.745 37.9242 140.535 37.4541 140.35 37.1201C140.164 36.7861 139.917 36.5016 139.607 36.2666C139.311 36.0192 138.915 35.8398 138.42 35.7285L138.457 34.8193H146.102C146.114 35.0296 146.12 35.3265 146.12 35.71C145.526 35.9079 145.062 36.1305 144.729 36.3779C144.407 36.6253 144.246 36.9779 144.246 37.4355C144.246 37.6458 144.277 37.8438 144.339 38.0293C144.339 38.0788 144.345 38.1221 144.357 38.1592L147.79 46.9912ZM170.724 25.9688C171.317 25.9688 171.825 26.179 172.245 26.5996C172.666 27.0202 172.876 27.5273 172.876 28.1211C172.876 28.7272 172.666 29.2406 172.245 29.6611C171.825 30.0693 171.317 30.2734 170.724 30.2734C170.118 30.2734 169.604 30.0693 169.184 29.6611C168.775 29.2406 168.571 28.7272 168.571 28.1211C168.571 27.5273 168.775 27.0202 169.184 26.5996C169.604 26.179 170.118 25.9688 170.724 25.9688ZM169.239 38.0107C169.078 37.7262 168.775 37.4727 168.33 37.25C167.897 37.015 167.446 36.8232 166.976 36.6748C166.518 36.514 166.289 36.4398 166.289 36.4521L166.326 35.8027L171.54 34.541L172.69 34.4668V47.418C172.69 47.8509 172.734 48.2591 172.82 48.6426C172.919 49.026 173.204 49.4157 173.674 49.8115C174.156 50.2074 174.911 50.4609 175.938 50.5723C175.938 50.9805 175.931 51.2897 175.919 51.5H166.233C166.209 51.2773 166.196 50.9681 166.196 50.5723L166.716 50.4238C167.26 50.2754 167.699 50.127 168.033 49.9785C168.367 49.8301 168.652 49.6136 168.887 49.3291C169.122 49.0322 169.239 48.6364 169.239 48.1416V38.0107ZM177.812 51.5L177.793 50.9062C177.793 50.7083 177.799 50.5723 177.812 50.498C178.529 50.3249 179.067 50.1702 179.426 50.0342C179.797 49.8981 180.1 49.6755 180.335 49.3662C180.57 49.057 180.688 48.624 180.688 48.0674V29.9023C180.564 29.7168 180.292 29.4941 179.871 29.2344C179.451 28.9622 179.005 28.721 178.535 28.5107C178.077 28.3005 177.737 28.1829 177.515 28.1582V27.5088L182.821 26.0986L184.139 25.9688V42.6865H185.66L191.598 36.8604C191.622 36.7985 191.635 36.7305 191.635 36.6562C191.635 36.3717 191.517 36.1862 191.282 36.0996C191.06 36.0007 190.719 35.9264 190.262 35.877C189.903 35.8398 189.643 35.7965 189.482 35.7471C189.322 35.6976 189.241 35.5924 189.241 35.4316C189.241 35.2585 189.26 35.0544 189.297 34.8193H197.164L197.22 35.4316C197.22 35.6914 196.706 35.9264 195.68 36.1367C194.839 36.3099 194.208 36.5758 193.787 36.9346L188.666 42.1855L193.564 48.5312C193.948 49.0384 194.437 49.4404 195.03 49.7373C195.624 50.0342 196.174 50.2383 196.682 50.3496C197.201 50.4609 197.56 50.5166 197.758 50.5166L197.702 51.5H188.518C188.505 51.401 188.48 51.2155 188.443 50.9434C188.419 50.6712 188.412 50.5352 188.425 50.5352C189.142 50.5352 189.631 50.4548 189.891 50.2939C190.15 50.1208 190.28 49.929 190.28 49.7188C190.28 49.6074 190.2 49.4652 190.039 49.292L185.716 43.707H184.139V47.3809C184.139 48.4447 184.405 49.2178 184.937 49.7002C185.481 50.1702 186.303 50.4609 187.404 50.5723C187.404 50.7578 187.398 50.9434 187.386 51.1289C187.373 51.3145 187.367 51.4382 187.367 51.5H177.812ZM212.36 25.9688C212.954 25.9688 213.461 26.179 213.882 26.5996C214.302 27.0202 214.513 27.5273 214.513 28.1211C214.513 28.7272 214.302 29.2406 213.882 29.6611C213.461 30.0693 212.954 30.2734 212.36 30.2734C211.754 30.2734 211.241 30.0693 210.82 29.6611C210.412 29.2406 210.208 28.7272 210.208 28.1211C210.208 27.5273 210.412 27.0202 210.82 26.5996C211.241 26.179 211.754 25.9688 212.36 25.9688ZM210.876 38.0107C210.715 37.7262 210.412 37.4727 209.967 37.25C209.534 37.015 209.082 36.8232 208.612 36.6748C208.155 36.514 207.926 36.4398 207.926 36.4521L207.963 35.8027L213.177 34.541L214.327 34.4668V47.418C214.327 47.8509 214.37 48.2591 214.457 48.6426C214.556 49.026 214.84 49.4157 215.311 49.8115C215.793 50.2074 216.548 50.4609 217.574 50.5723C217.574 50.9805 217.568 51.2897 217.556 51.5H207.87C207.845 51.2773 207.833 50.9681 207.833 50.5723L208.353 50.4238C208.897 50.2754 209.336 50.127 209.67 49.9785C210.004 49.8301 210.288 49.6136 210.523 49.3291C210.758 49.0322 210.876 48.6364 210.876 48.1416V38.0107ZM225.089 47.3809C225.089 48.4447 225.355 49.2178 225.887 49.7002C226.431 50.1702 227.254 50.4609 228.354 50.5723C228.354 50.7578 228.348 50.9434 228.336 51.1289C228.324 51.3145 228.317 51.4382 228.317 51.5H218.762L218.743 50.9062C218.743 50.7083 218.749 50.5723 218.762 50.498C219.479 50.3249 220.017 50.1702 220.376 50.0342C220.747 49.8981 221.05 49.6755 221.285 49.3662C221.52 49.057 221.638 48.624 221.638 48.0674V38.0107C221.489 37.7262 221.199 37.4727 220.766 37.25C220.333 37.015 219.875 36.8232 219.393 36.6748C218.923 36.514 218.688 36.4398 218.688 36.4521L218.743 35.8213L223.809 34.5596L224.94 34.4854L225.145 37.4912C225.825 36.5758 226.691 35.8213 227.742 35.2275C228.806 34.6214 229.95 34.3184 231.175 34.3184C232.968 34.3184 234.36 34.8255 235.35 35.8398C236.339 36.8542 236.877 38.3695 236.964 40.3857C237.001 41.1774 237.02 41.9876 237.02 42.8164V46.9541C237.02 47.8571 237.075 48.5127 237.187 48.9209C237.298 49.3291 237.471 49.6136 237.706 49.7744C237.953 49.9229 238.362 50.0837 238.931 50.2568L239.71 50.498C239.722 50.5723 239.729 50.7083 239.729 50.9062L239.71 51.5H230.562C230.562 51.4258 230.556 51.3021 230.544 51.1289C230.532 50.9434 230.525 50.7578 230.525 50.5723C230.612 50.5352 230.859 50.4609 231.268 50.3496C231.923 50.1641 232.43 49.9661 232.789 49.7559C233.16 49.5456 233.383 49.2054 233.457 48.7354C233.519 48.3766 233.55 47.9004 233.55 47.3066V43.1689C233.55 41.5238 233.488 40.2559 233.364 39.3652C233.253 38.4746 232.944 37.7448 232.437 37.1758C231.942 36.6068 231.138 36.3223 230.024 36.3223C229.146 36.3223 228.299 36.5758 227.482 37.083C226.678 37.5902 225.881 38.2643 225.089 39.1055V47.3809ZM248.857 51.7227C248.709 51.7969 248.523 51.834 248.301 51.834C248.066 51.834 247.88 51.7969 247.744 51.7227L242.066 38.0664C241.856 37.5469 241.664 37.1634 241.491 36.916C241.318 36.6562 241.151 36.4769 240.99 36.3779C240.829 36.279 240.601 36.1862 240.304 36.0996C239.994 36.0007 239.71 35.8955 239.45 35.7842V34.8193H247.8C247.8 34.9183 247.812 35.0667 247.837 35.2646C247.874 35.4626 247.893 35.6481 247.893 35.8213C247.089 36.0439 246.489 36.2604 246.093 36.4707C245.697 36.681 245.499 36.9902 245.499 37.3984C245.499 37.5221 245.53 37.6891 245.592 37.8994L249.377 47.2324L252.568 39.458C252.915 38.6045 253.088 37.9489 253.088 37.4912C253.051 37.0583 252.84 36.7305 252.457 36.5078C252.086 36.2728 251.492 36.0563 250.676 35.8584C250.663 35.7842 250.657 35.6419 250.657 35.4316C250.657 35.2832 250.657 35.1533 250.657 35.042C250.67 34.9307 250.676 34.8564 250.676 34.8193H257.578C257.603 35.0296 257.615 35.3451 257.615 35.7656C257.38 35.9017 257.151 36.013 256.929 36.0996C256.57 36.2604 256.273 36.415 256.038 36.5635C255.815 36.6995 255.574 36.916 255.314 37.2129C255.067 37.5098 254.832 37.9056 254.609 38.4004L248.857 51.7227ZM267.765 34.3184C269.41 34.3184 270.907 34.6771 272.255 35.3945C273.616 36.0996 274.692 37.1139 275.483 38.4375C276.275 39.7487 276.671 41.2764 276.671 43.0205C276.671 44.7646 276.275 46.3109 275.483 47.6592C274.692 48.9951 273.634 50.0342 272.311 50.7764C270.987 51.5062 269.54 51.8711 267.969 51.8711C266.41 51.8711 264.951 51.4938 263.59 50.7393C262.229 49.9847 261.141 48.9395 260.324 47.6035C259.508 46.2552 259.1 44.7337 259.1 43.0391C259.1 41.3444 259.495 39.8353 260.287 38.5117C261.079 37.1758 262.136 36.1429 263.46 35.4131C264.796 34.6833 266.231 34.3184 267.765 34.3184ZM268.21 50.4238C269.781 50.4238 270.975 49.861 271.791 48.7354C272.607 47.6097 273.016 46.1315 273.016 44.3008C273.016 42.7174 272.793 41.264 272.348 39.9404C271.915 38.6045 271.29 37.5407 270.474 36.749C269.657 35.9574 268.717 35.5615 267.653 35.5615C266.713 35.5615 265.878 35.7904 265.148 36.248C264.431 36.7057 263.862 37.4108 263.441 38.3633C263.021 39.3158 262.811 40.5094 262.811 41.9443C262.811 43.3545 263.033 44.7152 263.479 46.0264C263.924 47.3252 264.555 48.3828 265.371 49.1992C266.188 50.0156 267.134 50.4238 268.21 50.4238ZM283.647 25.9688C284.241 25.9688 284.748 26.179 285.169 26.5996C285.59 27.0202 285.8 27.5273 285.8 28.1211C285.8 28.7272 285.59 29.2406 285.169 29.6611C284.748 30.0693 284.241 30.2734 283.647 30.2734C283.041 30.2734 282.528 30.0693 282.107 29.6611C281.699 29.2406 281.495 28.7272 281.495 28.1211C281.495 27.5273 281.699 27.0202 282.107 26.5996C282.528 26.179 283.041 25.9688 283.647 25.9688ZM282.163 38.0107C282.002 37.7262 281.699 37.4727 281.254 37.25C280.821 37.015 280.369 36.8232 279.899 36.6748C279.442 36.514 279.213 36.4398 279.213 36.4521L279.25 35.8027L284.464 34.541L285.614 34.4668V47.418C285.614 47.8509 285.658 48.2591 285.744 48.6426C285.843 49.026 286.128 49.4157 286.598 49.8115C287.08 50.2074 287.835 50.4609 288.861 50.5723C288.861 50.9805 288.855 51.2897 288.843 51.5H279.157C279.132 51.2773 279.12 50.9681 279.12 50.5723L279.64 50.4238C280.184 50.2754 280.623 50.127 280.957 49.9785C281.291 49.8301 281.576 49.6136 281.811 49.3291C282.046 49.0322 282.163 48.6364 282.163 48.1416V38.0107ZM305.542 48.0117C305.282 48.8405 304.818 49.5456 304.15 50.127C303.482 50.7083 302.697 51.1475 301.794 51.4443C300.891 51.7288 299.951 51.8711 298.974 51.8711C297.267 51.8711 295.788 51.4753 294.539 50.6836C293.302 49.8796 292.362 48.8158 291.719 47.4922C291.076 46.1686 290.754 44.7337 290.754 43.1875C290.754 41.5547 291.144 40.0641 291.923 38.7158C292.702 37.3551 293.797 36.2852 295.207 35.5059C296.617 34.7142 298.219 34.3184 300.013 34.3184C301.052 34.3184 302.004 34.473 302.87 34.7822C303.736 35.0791 304.416 35.5059 304.911 36.0625C305.418 36.6191 305.672 37.2624 305.672 37.9922C305.672 38.5488 305.493 38.957 305.134 39.2168C304.775 39.4642 304.392 39.5879 303.983 39.5879C303.6 39.5879 303.303 39.5199 303.093 39.3838C302.882 39.2354 302.728 39.0622 302.629 38.8643C302.542 38.654 302.456 38.3633 302.369 37.9922C302.27 37.5221 302.146 37.1387 301.998 36.8418C301.862 36.5449 301.602 36.2852 301.219 36.0625C300.835 35.8398 300.285 35.7161 299.567 35.6914C298.615 35.6543 297.724 35.8893 296.896 36.3965C296.067 36.8913 295.399 37.6335 294.892 38.623C294.397 39.6126 294.149 40.8001 294.149 42.1855C294.149 43.472 294.378 44.6533 294.836 45.7295C295.294 46.8057 295.962 47.6654 296.84 48.3086C297.73 48.9518 298.794 49.2734 300.031 49.2734C301.107 49.2734 302.004 49.1436 302.722 48.8838C303.439 48.624 304.181 48.1911 304.948 47.585L305.542 48.0117ZM312.222 41.7402C312.209 41.8639 312.203 42.0433 312.203 42.2783C312.203 43.8369 312.481 45.1419 313.038 46.1934C313.607 47.2324 314.362 48.0055 315.302 48.5127C316.254 49.0075 317.318 49.2549 318.493 49.2549C320.052 49.2549 321.555 48.8096 323.002 47.9189L323.54 48.4385C323.243 49.1559 322.742 49.7744 322.037 50.2939C321.344 50.8135 320.553 51.2093 319.662 51.4814C318.784 51.7412 317.93 51.8711 317.102 51.8711C315.543 51.8711 314.139 51.5062 312.89 50.7764C311.653 50.0465 310.682 49.026 309.977 47.7148C309.284 46.4036 308.938 44.9007 308.938 43.2061C308.938 41.4867 309.315 39.9528 310.069 38.6045C310.824 37.2438 311.826 36.1924 313.075 35.4502C314.337 34.6956 315.685 34.3184 317.12 34.3184C318.295 34.3184 319.353 34.5596 320.293 35.042C321.245 35.512 322.019 36.18 322.612 37.0459C323.206 37.8994 323.583 38.8828 323.744 39.9961C323.88 40.5651 323.948 41.0908 323.948 41.5732V41.7402H312.222ZM318.901 40.5527C319.446 40.528 319.903 40.429 320.274 40.2559C320.188 38.7839 319.841 37.6335 319.235 36.8047C318.642 35.9759 317.794 35.5615 316.693 35.5615C315.889 35.5615 315.172 35.8027 314.541 36.2852C313.923 36.7676 313.422 37.4108 313.038 38.2148C312.655 39.0065 312.407 39.8786 312.296 40.8311L318.901 40.5527Z" fill="#F1F1F1"/>
</svg>
