<svg width="148" height="51" viewBox="0 0 148 51" fill="none" xmlns="http://www.w3.org/2000/svg">
<path d="M0 7.5H58C67.9411 7.5 76 15.5589 76 25.5V25.5C76 35.4411 67.9411 43.5 58 43.5H0V7.5Z" fill="#F1F1F1"/>
<path d="M95.7344 28.6094L95.3633 29.5469C94.7773 31.0703 94.3151 32.3268 93.9766 33.3164C93.638 34.293 93.4688 35.0482 93.4688 35.582C93.4688 36.0508 93.638 36.4349 93.9766 36.7344C94.3281 37.0339 94.7253 37.2552 95.168 37.3984C95.6237 37.5417 96.1771 37.6784 96.8281 37.8086L97.1992 37.8867V39H87.9805V37.9844C88.1628 37.8411 88.3451 37.724 88.5273 37.6328C88.7227 37.5286 88.9635 37.418 89.25 37.3008C89.7057 37.1185 90.0703 36.9297 90.3438 36.7344C90.6302 36.5391 90.8841 36.2331 91.1055 35.8164C91.2357 35.556 91.3659 35.263 91.4961 34.9375C91.6393 34.599 91.7305 34.3776 91.7695 34.2734L92.0039 33.668L99.3086 14.957C99.3607 14.8138 99.3997 14.5664 99.4258 14.2148C99.4388 13.9544 99.4583 13.7461 99.4844 13.5898C99.5234 13.4206 99.5885 13.2708 99.6797 13.1406C100.318 13.1406 100.865 13.2057 101.32 13.3359C101.789 13.4661 102.258 13.707 102.727 14.0586L111.691 35.5625C111.861 35.9661 112.056 36.2917 112.277 36.5391C112.499 36.7734 112.727 36.9557 112.961 37.0859C113.208 37.2031 113.54 37.3464 113.957 37.5156C114.309 37.6328 114.68 37.7891 115.07 37.9844L115.031 39H103.664L103.625 37.9844C104.237 37.8021 104.758 37.6198 105.188 37.4375C105.63 37.2552 106.027 37.0013 106.379 36.6758C106.73 36.3503 106.906 35.9531 106.906 35.4844C106.906 34.9635 106.255 33.0299 104.953 29.6836C104.875 29.4883 104.797 29.2995 104.719 29.1172C104.654 28.9349 104.595 28.7656 104.543 28.6094H95.7344ZM99.9727 17.2812L96.3984 26.8906H103.82L99.9727 17.2812ZM120.184 17.6914C119.845 17.1445 119.493 16.7083 119.129 16.3828C118.764 16.0573 118.4 15.8099 118.035 15.6406C117.671 15.4714 117.182 15.2826 116.57 15.0742C115.984 14.8789 115.529 14.7161 115.203 14.5859V13.5703H122.02L140.398 32.5742V20.2891C140.398 19.0521 140.223 17.9258 139.871 16.9102C139.728 16.4935 139.533 16.168 139.285 15.9336C139.038 15.6992 138.771 15.5299 138.484 15.4258C138.198 15.3216 137.814 15.2109 137.332 15.0938C137.254 15.0677 137.052 15.0156 136.727 14.9375C136.414 14.8464 136.128 14.7357 135.867 14.6055C135.867 14.2669 135.887 13.9219 135.926 13.5703H146.219V14.625C145.854 14.7943 145.477 14.957 145.086 15.1133C144.135 15.5299 143.478 15.875 143.113 16.1484C142.749 16.4219 142.488 16.8516 142.332 17.4375C142.189 18.0104 142.111 18.9544 142.098 20.2695C142.098 20.9336 142.085 21.9167 142.059 23.2188C142.046 24.2083 142.033 25.4453 142.02 26.9297C142.007 28.401 142 30.1263 142 32.1055C142 32.9648 142.078 34.2409 142.234 35.9336C142.365 37.3659 142.436 38.4466 142.449 39.1758C142.202 39.2669 141.883 39.3125 141.492 39.3125C141.076 39.3125 140.704 39.2669 140.379 39.1758C139.441 38.0299 138.374 36.8125 137.176 35.5234L121.746 19.293V33.0039C121.746 33.8763 121.857 34.7552 122.078 35.6406C122.182 36.0833 122.371 36.4284 122.645 36.6758C122.918 36.9102 123.211 37.0794 123.523 37.1836C123.849 37.2878 124.285 37.3919 124.832 37.4961C125.587 37.6133 126.147 37.7695 126.512 37.9648C126.512 38.3034 126.492 38.6484 126.453 39H115.438C115.411 38.7656 115.398 38.4141 115.398 37.9453L116.297 37.7109C117.13 37.5026 117.788 37.3008 118.27 37.1055C118.764 36.9102 119.188 36.5911 119.539 36.1484C119.904 35.7057 120.118 35.1003 120.184 34.332V17.6914Z" fill="#F1F1F1"/>
</svg>
