<svg width="324" height="77" viewBox="0 0 324 77" fill="none" xmlns="http://www.w3.org/2000/svg">
<path d="M28.6818 69.1364C24.6212 69.1364 21.1212 68.1742 18.1818 66.25C15.2424 64.3106 12.9773 61.5303 11.3864 57.9091C9.79545 54.2727 9.00758 49.9015 9.02273 44.7955C9.03788 39.6894 9.83333 35.3561 11.4091 31.7955C13 28.2197 15.2576 25.5 18.1818 23.6364C21.1212 21.7576 24.6212 20.8182 28.6818 20.8182C32.7424 20.8182 36.2424 21.7576 39.1818 23.6364C42.1364 25.5 44.4091 28.2197 46 31.7955C47.5909 35.3712 48.3788 39.7045 48.3636 44.7955C48.3636 49.9167 47.5682 54.2955 45.9773 57.9318C44.3864 61.5682 42.1212 64.3485 39.1818 66.2727C36.2576 68.1818 32.7576 69.1364 28.6818 69.1364ZM28.6818 59.9318C31.1061 59.9318 33.0682 58.697 34.5682 56.2273C36.0682 53.7424 36.8106 49.9318 36.7955 44.7955C36.7955 41.4318 36.4545 38.6591 35.7727 36.4773C35.0909 34.2803 34.1439 32.6439 32.9318 31.5682C31.7197 30.4924 30.303 29.9545 28.6818 29.9545C26.2727 29.9545 24.3258 31.1742 22.8409 33.6136C21.3561 36.0379 20.6061 39.7652 20.5909 44.7955C20.5758 48.2045 20.9015 51.0303 21.5682 53.2727C22.25 55.5152 23.2045 57.1894 24.4318 58.2955C25.6591 59.3864 27.0758 59.9318 28.6818 59.9318ZM54.8068 68V59.9091L71.7841 45.0455C73.0568 43.8939 74.1402 42.8409 75.0341 41.8864C75.928 40.9167 76.6098 39.947 77.0795 38.9773C77.5492 37.9924 77.7841 36.9242 77.7841 35.7727C77.7841 34.4848 77.5038 33.3864 76.9432 32.4773C76.3826 31.553 75.6098 30.8409 74.625 30.3409C73.6402 29.8409 72.5114 29.5909 71.2386 29.5909C69.9508 29.5909 68.822 29.8561 67.8523 30.3864C66.8826 30.9015 66.125 31.6515 65.5795 32.6364C65.0492 33.6212 64.7841 34.8182 64.7841 36.2273H54.125C54.125 33.0606 54.8371 30.3258 56.2614 28.0227C57.6856 25.7197 59.6856 23.947 62.2614 22.7045C64.8523 21.447 67.8598 20.8182 71.2841 20.8182C74.8144 20.8182 77.8826 21.4091 80.4886 22.5909C83.0947 23.7727 85.1098 25.4242 86.5341 27.5455C87.9735 29.6515 88.6932 32.0985 88.6932 34.8864C88.6932 36.6591 88.3371 38.4167 87.625 40.1591C86.9129 41.9015 85.6326 43.8258 83.7841 45.9318C81.9508 48.0379 79.3447 50.5606 75.9659 53.5L70.3977 58.6364V58.9318H89.2614V68H54.8068Z" fill="#00D6A3"/>
<path d="M22.6818 63.1364C18.6212 63.1364 15.1212 62.1742 12.1818 60.25C9.24242 58.3106 6.97727 55.5303 5.38636 51.9091C3.79545 48.2727 3.00758 43.9015 3.02273 38.7955C3.03788 33.6894 3.83333 29.3561 5.40909 25.7955C7 22.2197 9.25758 19.5 12.1818 17.6364C15.1212 15.7576 18.6212 14.8182 22.6818 14.8182C26.7424 14.8182 30.2424 15.7576 33.1818 17.6364C36.1364 19.5 38.4091 22.2197 40 25.7955C41.5909 29.3712 42.3788 33.7045 42.3636 38.7955C42.3636 43.9167 41.5682 48.2955 39.9773 51.9318C38.3864 55.5682 36.1212 58.3485 33.1818 60.2727C30.2576 62.1818 26.7576 63.1364 22.6818 63.1364ZM22.6818 53.9318C25.1061 53.9318 27.0682 52.697 28.5682 50.2273C30.0682 47.7424 30.8106 43.9318 30.7955 38.7955C30.7955 35.4318 30.4545 32.6591 29.7727 30.4773C29.0909 28.2803 28.1439 26.6439 26.9318 25.5682C25.7197 24.4924 24.303 23.9545 22.6818 23.9545C20.2727 23.9545 18.3258 25.1742 16.8409 27.6136C15.3561 30.0379 14.6061 33.7652 14.5909 38.7955C14.5758 42.2045 14.9015 45.0303 15.5682 47.2727C16.25 49.5152 17.2045 51.1894 18.4318 52.2955C19.6591 53.3864 21.0758 53.9318 22.6818 53.9318ZM48.8068 62V53.9091L65.7841 39.0455C67.0568 37.8939 68.1402 36.8409 69.0341 35.8864C69.928 34.9167 70.6098 33.947 71.0795 32.9773C71.5492 31.9924 71.7841 30.9242 71.7841 29.7727C71.7841 28.4848 71.5038 27.3864 70.9432 26.4773C70.3826 25.553 69.6098 24.8409 68.625 24.3409C67.6402 23.8409 66.5114 23.5909 65.2386 23.5909C63.9508 23.5909 62.822 23.8561 61.8523 24.3864C60.8826 24.9015 60.125 25.6515 59.5795 26.6364C59.0492 27.6212 58.7841 28.8182 58.7841 30.2273H48.125C48.125 27.0606 48.8371 24.3258 50.2614 22.0227C51.6856 19.7197 53.6856 17.947 56.2614 16.7045C58.8523 15.447 61.8598 14.8182 65.2841 14.8182C68.8144 14.8182 71.8826 15.4091 74.4886 16.5909C77.0947 17.7727 79.1098 19.4242 80.5341 21.5455C81.9735 23.6515 82.6932 26.0985 82.6932 28.8864C82.6932 30.6591 82.3371 32.4167 81.625 34.1591C80.9129 35.9015 79.6326 37.8258 77.7841 39.9318C75.9508 42.0379 73.3447 44.5606 69.9659 47.5L64.3977 52.6364V52.9318H83.2614V62H48.8068Z" fill="#F1F1F1"/>
<path d="M122.077 38.0293L130.538 29.6426C130.588 29.4941 130.612 29.3581 130.612 29.2344C130.612 28.888 130.464 28.6592 130.167 28.5479C129.87 28.4365 129.419 28.3499 128.812 28.2881C128.33 28.2386 127.971 28.1768 127.736 28.1025C127.514 28.0283 127.402 27.8861 127.402 27.6758C127.402 27.6387 127.433 27.5273 127.495 27.3418H137.96L138.034 27.6758C138.034 27.8366 137.799 27.9974 137.329 28.1582C136.859 28.319 136.216 28.486 135.399 28.6592C134.212 28.9189 133.334 29.2839 132.765 29.7539L125.565 37.1387L134.249 49.0879C134.41 49.2611 134.682 49.4281 135.065 49.5889C135.461 49.7373 135.987 49.9167 136.643 50.127C137.335 50.3372 137.861 50.5228 138.22 50.6836C138.591 50.8444 138.776 51.0052 138.776 51.166C138.776 51.3021 138.752 51.4134 138.702 51.5H126.011C125.937 51.3392 125.899 51.234 125.899 51.1846C125.899 50.999 126.011 50.8691 126.233 50.7949C126.468 50.7083 126.833 50.6279 127.328 50.5537C127.922 50.4671 128.367 50.3682 128.664 50.2568C128.973 50.1331 129.128 49.9167 129.128 49.6074C129.128 49.4837 129.023 49.2858 128.812 49.0137L122.151 39.2539H120.481V49.1992C120.481 49.5827 120.605 49.8734 120.853 50.0713C121.112 50.2568 121.422 50.3805 121.78 50.4424C122.139 50.4919 122.597 50.529 123.153 50.5537C123.759 50.5908 124.199 50.6465 124.471 50.7207C124.743 50.7826 124.879 50.9248 124.879 51.1475C124.879 51.1722 124.848 51.2897 124.786 51.5H112.354C112.305 51.3516 112.28 51.2464 112.28 51.1846C112.28 50.9743 112.416 50.832 112.688 50.7578C112.961 50.6712 113.375 50.597 113.932 50.5352C114.476 50.4609 114.915 50.3867 115.249 50.3125C115.583 50.2383 115.874 50.1022 116.121 49.9043C116.368 49.7064 116.492 49.4342 116.492 49.0879V29.8652C116.492 29.3828 116.263 29.0426 115.806 28.8447C115.348 28.6468 114.705 28.486 113.876 28.3623C113.307 28.2633 112.893 28.1706 112.633 28.084C112.385 27.9974 112.262 27.8613 112.262 27.6758C112.262 27.6387 112.293 27.5273 112.354 27.3418H124.712C124.761 27.5026 124.786 27.6077 124.786 27.6572C124.786 27.8675 124.65 28.016 124.378 28.1025C124.106 28.1891 123.679 28.2757 123.098 28.3623C122.541 28.4489 122.09 28.5355 121.743 28.6221C121.397 28.7087 121.1 28.8509 120.853 29.0488C120.605 29.2467 120.481 29.5189 120.481 29.8652V38.0293H122.077ZM145.79 46.9912L149.186 38.7344C148.951 37.8932 148.573 37.1882 148.054 36.6191C147.534 36.0501 146.872 35.7471 146.068 35.71L146.105 34.8193H154.307C154.331 35.2399 154.344 35.5368 154.344 35.71C154.183 35.7842 153.929 35.8831 153.583 36.0068C153.113 36.1676 152.767 36.3285 152.544 36.4893C152.321 36.6501 152.21 36.9036 152.21 37.25C152.21 37.5098 152.321 37.9427 152.544 38.5488L155.568 46.8428L158.463 39.0312C158.698 38.4251 158.815 37.918 158.815 37.5098C158.815 37.1387 158.76 36.8604 158.648 36.6748C158.537 36.4769 158.382 36.3346 158.185 36.248C157.987 36.1615 157.677 36.0625 157.257 35.9512L156.57 35.7656C156.546 35.5924 156.533 35.444 156.533 35.3203C156.533 35.209 156.546 35.042 156.57 34.8193H163.083V35.8027C162.737 35.8522 162.353 36.0068 161.933 36.2666C161.524 36.5264 161.153 36.8418 160.819 37.2129C160.498 37.5716 160.275 37.918 160.151 38.252L155.142 51.7598C155.018 51.834 154.832 51.8711 154.585 51.8711C154.35 51.8711 154.158 51.834 154.01 51.7598L149.798 40.4414L145.326 51.7598C145.178 51.834 144.986 51.8711 144.751 51.8711C144.491 51.8711 144.293 51.834 144.157 51.7598L138.98 38.5303C138.745 37.9242 138.535 37.4541 138.35 37.1201C138.164 36.7861 137.917 36.5016 137.607 36.2666C137.311 36.0192 136.915 35.8398 136.42 35.7285L136.457 34.8193H144.102C144.114 35.0296 144.12 35.3265 144.12 35.71C143.526 35.9079 143.062 36.1305 142.729 36.3779C142.407 36.6253 142.246 36.9779 142.246 37.4355C142.246 37.6458 142.277 37.8438 142.339 38.0293C142.339 38.0788 142.345 38.1221 142.357 38.1592L145.79 46.9912ZM168.724 25.9688C169.317 25.9688 169.825 26.179 170.245 26.5996C170.666 27.0202 170.876 27.5273 170.876 28.1211C170.876 28.7272 170.666 29.2406 170.245 29.6611C169.825 30.0693 169.317 30.2734 168.724 30.2734C168.118 30.2734 167.604 30.0693 167.184 29.6611C166.775 29.2406 166.571 28.7272 166.571 28.1211C166.571 27.5273 166.775 27.0202 167.184 26.5996C167.604 26.179 168.118 25.9688 168.724 25.9688ZM167.239 38.0107C167.078 37.7262 166.775 37.4727 166.33 37.25C165.897 37.015 165.446 36.8232 164.976 36.6748C164.518 36.514 164.289 36.4398 164.289 36.4521L164.326 35.8027L169.54 34.541L170.69 34.4668V47.418C170.69 47.8509 170.734 48.2591 170.82 48.6426C170.919 49.026 171.204 49.4157 171.674 49.8115C172.156 50.2074 172.911 50.4609 173.938 50.5723C173.938 50.9805 173.931 51.2897 173.919 51.5H164.233C164.209 51.2773 164.196 50.9681 164.196 50.5723L164.716 50.4238C165.26 50.2754 165.699 50.127 166.033 49.9785C166.367 49.8301 166.652 49.6136 166.887 49.3291C167.122 49.0322 167.239 48.6364 167.239 48.1416V38.0107ZM175.812 51.5L175.793 50.9062C175.793 50.7083 175.799 50.5723 175.812 50.498C176.529 50.3249 177.067 50.1702 177.426 50.0342C177.797 49.8981 178.1 49.6755 178.335 49.3662C178.57 49.057 178.688 48.624 178.688 48.0674V29.9023C178.564 29.7168 178.292 29.4941 177.871 29.2344C177.451 28.9622 177.005 28.721 176.535 28.5107C176.077 28.3005 175.737 28.1829 175.515 28.1582V27.5088L180.821 26.0986L182.139 25.9688V42.6865H183.66L189.598 36.8604C189.622 36.7985 189.635 36.7305 189.635 36.6562C189.635 36.3717 189.517 36.1862 189.282 36.0996C189.06 36.0007 188.719 35.9264 188.262 35.877C187.903 35.8398 187.643 35.7965 187.482 35.7471C187.322 35.6976 187.241 35.5924 187.241 35.4316C187.241 35.2585 187.26 35.0544 187.297 34.8193H195.164L195.22 35.4316C195.22 35.6914 194.706 35.9264 193.68 36.1367C192.839 36.3099 192.208 36.5758 191.787 36.9346L186.666 42.1855L191.564 48.5312C191.948 49.0384 192.437 49.4404 193.03 49.7373C193.624 50.0342 194.174 50.2383 194.682 50.3496C195.201 50.4609 195.56 50.5166 195.758 50.5166L195.702 51.5H186.518C186.505 51.401 186.48 51.2155 186.443 50.9434C186.419 50.6712 186.412 50.5352 186.425 50.5352C187.142 50.5352 187.631 50.4548 187.891 50.2939C188.15 50.1208 188.28 49.929 188.28 49.7188C188.28 49.6074 188.2 49.4652 188.039 49.292L183.716 43.707H182.139V47.3809C182.139 48.4447 182.405 49.2178 182.937 49.7002C183.481 50.1702 184.303 50.4609 185.404 50.5723C185.404 50.7578 185.398 50.9434 185.386 51.1289C185.373 51.3145 185.367 51.4382 185.367 51.5H175.812ZM210.36 25.9688C210.954 25.9688 211.461 26.179 211.882 26.5996C212.302 27.0202 212.513 27.5273 212.513 28.1211C212.513 28.7272 212.302 29.2406 211.882 29.6611C211.461 30.0693 210.954 30.2734 210.36 30.2734C209.754 30.2734 209.241 30.0693 208.82 29.6611C208.412 29.2406 208.208 28.7272 208.208 28.1211C208.208 27.5273 208.412 27.0202 208.82 26.5996C209.241 26.179 209.754 25.9688 210.36 25.9688ZM208.876 38.0107C208.715 37.7262 208.412 37.4727 207.967 37.25C207.534 37.015 207.082 36.8232 206.612 36.6748C206.155 36.514 205.926 36.4398 205.926 36.4521L205.963 35.8027L211.177 34.541L212.327 34.4668V47.418C212.327 47.8509 212.37 48.2591 212.457 48.6426C212.556 49.026 212.84 49.4157 213.311 49.8115C213.793 50.2074 214.548 50.4609 215.574 50.5723C215.574 50.9805 215.568 51.2897 215.556 51.5H205.87C205.845 51.2773 205.833 50.9681 205.833 50.5723L206.353 50.4238C206.897 50.2754 207.336 50.127 207.67 49.9785C208.004 49.8301 208.288 49.6136 208.523 49.3291C208.758 49.0322 208.876 48.6364 208.876 48.1416V38.0107ZM223.089 47.3809C223.089 48.4447 223.355 49.2178 223.887 49.7002C224.431 50.1702 225.254 50.4609 226.354 50.5723C226.354 50.7578 226.348 50.9434 226.336 51.1289C226.324 51.3145 226.317 51.4382 226.317 51.5H216.762L216.743 50.9062C216.743 50.7083 216.749 50.5723 216.762 50.498C217.479 50.3249 218.017 50.1702 218.376 50.0342C218.747 49.8981 219.05 49.6755 219.285 49.3662C219.52 49.057 219.638 48.624 219.638 48.0674V38.0107C219.489 37.7262 219.199 37.4727 218.766 37.25C218.333 37.015 217.875 36.8232 217.393 36.6748C216.923 36.514 216.688 36.4398 216.688 36.4521L216.743 35.8213L221.809 34.5596L222.94 34.4854L223.145 37.4912C223.825 36.5758 224.691 35.8213 225.742 35.2275C226.806 34.6214 227.95 34.3184 229.175 34.3184C230.968 34.3184 232.36 34.8255 233.35 35.8398C234.339 36.8542 234.877 38.3695 234.964 40.3857C235.001 41.1774 235.02 41.9876 235.02 42.8164V46.9541C235.02 47.8571 235.075 48.5127 235.187 48.9209C235.298 49.3291 235.471 49.6136 235.706 49.7744C235.953 49.9229 236.362 50.0837 236.931 50.2568L237.71 50.498C237.722 50.5723 237.729 50.7083 237.729 50.9062L237.71 51.5H228.562C228.562 51.4258 228.556 51.3021 228.544 51.1289C228.532 50.9434 228.525 50.7578 228.525 50.5723C228.612 50.5352 228.859 50.4609 229.268 50.3496C229.923 50.1641 230.43 49.9661 230.789 49.7559C231.16 49.5456 231.383 49.2054 231.457 48.7354C231.519 48.3766 231.55 47.9004 231.55 47.3066V43.1689C231.55 41.5238 231.488 40.2559 231.364 39.3652C231.253 38.4746 230.944 37.7448 230.437 37.1758C229.942 36.6068 229.138 36.3223 228.024 36.3223C227.146 36.3223 226.299 36.5758 225.482 37.083C224.678 37.5902 223.881 38.2643 223.089 39.1055V47.3809ZM246.857 51.7227C246.709 51.7969 246.523 51.834 246.301 51.834C246.066 51.834 245.88 51.7969 245.744 51.7227L240.066 38.0664C239.856 37.5469 239.664 37.1634 239.491 36.916C239.318 36.6562 239.151 36.4769 238.99 36.3779C238.829 36.279 238.601 36.1862 238.304 36.0996C237.994 36.0007 237.71 35.8955 237.45 35.7842V34.8193H245.8C245.8 34.9183 245.812 35.0667 245.837 35.2646C245.874 35.4626 245.893 35.6481 245.893 35.8213C245.089 36.0439 244.489 36.2604 244.093 36.4707C243.697 36.681 243.499 36.9902 243.499 37.3984C243.499 37.5221 243.53 37.6891 243.592 37.8994L247.377 47.2324L250.568 39.458C250.915 38.6045 251.088 37.9489 251.088 37.4912C251.051 37.0583 250.84 36.7305 250.457 36.5078C250.086 36.2728 249.492 36.0563 248.676 35.8584C248.663 35.7842 248.657 35.6419 248.657 35.4316C248.657 35.2832 248.657 35.1533 248.657 35.042C248.67 34.9307 248.676 34.8564 248.676 34.8193H255.578C255.603 35.0296 255.615 35.3451 255.615 35.7656C255.38 35.9017 255.151 36.013 254.929 36.0996C254.57 36.2604 254.273 36.415 254.038 36.5635C253.815 36.6995 253.574 36.916 253.314 37.2129C253.067 37.5098 252.832 37.9056 252.609 38.4004L246.857 51.7227ZM265.765 34.3184C267.41 34.3184 268.907 34.6771 270.255 35.3945C271.616 36.0996 272.692 37.1139 273.483 38.4375C274.275 39.7487 274.671 41.2764 274.671 43.0205C274.671 44.7646 274.275 46.3109 273.483 47.6592C272.692 48.9951 271.634 50.0342 270.311 50.7764C268.987 51.5062 267.54 51.8711 265.969 51.8711C264.41 51.8711 262.951 51.4938 261.59 50.7393C260.229 49.9847 259.141 48.9395 258.324 47.6035C257.508 46.2552 257.1 44.7337 257.1 43.0391C257.1 41.3444 257.495 39.8353 258.287 38.5117C259.079 37.1758 260.136 36.1429 261.46 35.4131C262.796 34.6833 264.231 34.3184 265.765 34.3184ZM266.21 50.4238C267.781 50.4238 268.975 49.861 269.791 48.7354C270.607 47.6097 271.016 46.1315 271.016 44.3008C271.016 42.7174 270.793 41.264 270.348 39.9404C269.915 38.6045 269.29 37.5407 268.474 36.749C267.657 35.9574 266.717 35.5615 265.653 35.5615C264.713 35.5615 263.878 35.7904 263.148 36.248C262.431 36.7057 261.862 37.4108 261.441 38.3633C261.021 39.3158 260.811 40.5094 260.811 41.9443C260.811 43.3545 261.033 44.7152 261.479 46.0264C261.924 47.3252 262.555 48.3828 263.371 49.1992C264.188 50.0156 265.134 50.4238 266.21 50.4238ZM281.647 25.9688C282.241 25.9688 282.748 26.179 283.169 26.5996C283.59 27.0202 283.8 27.5273 283.8 28.1211C283.8 28.7272 283.59 29.2406 283.169 29.6611C282.748 30.0693 282.241 30.2734 281.647 30.2734C281.041 30.2734 280.528 30.0693 280.107 29.6611C279.699 29.2406 279.495 28.7272 279.495 28.1211C279.495 27.5273 279.699 27.0202 280.107 26.5996C280.528 26.179 281.041 25.9688 281.647 25.9688ZM280.163 38.0107C280.002 37.7262 279.699 37.4727 279.254 37.25C278.821 37.015 278.369 36.8232 277.899 36.6748C277.442 36.514 277.213 36.4398 277.213 36.4521L277.25 35.8027L282.464 34.541L283.614 34.4668V47.418C283.614 47.8509 283.658 48.2591 283.744 48.6426C283.843 49.026 284.128 49.4157 284.598 49.8115C285.08 50.2074 285.835 50.4609 286.861 50.5723C286.861 50.9805 286.855 51.2897 286.843 51.5H277.157C277.132 51.2773 277.12 50.9681 277.12 50.5723L277.64 50.4238C278.184 50.2754 278.623 50.127 278.957 49.9785C279.291 49.8301 279.576 49.6136 279.811 49.3291C280.046 49.0322 280.163 48.6364 280.163 48.1416V38.0107ZM303.542 48.0117C303.282 48.8405 302.818 49.5456 302.15 50.127C301.482 50.7083 300.697 51.1475 299.794 51.4443C298.891 51.7288 297.951 51.8711 296.974 51.8711C295.267 51.8711 293.788 51.4753 292.539 50.6836C291.302 49.8796 290.362 48.8158 289.719 47.4922C289.076 46.1686 288.754 44.7337 288.754 43.1875C288.754 41.5547 289.144 40.0641 289.923 38.7158C290.702 37.3551 291.797 36.2852 293.207 35.5059C294.617 34.7142 296.219 34.3184 298.013 34.3184C299.052 34.3184 300.004 34.473 300.87 34.7822C301.736 35.0791 302.416 35.5059 302.911 36.0625C303.418 36.6191 303.672 37.2624 303.672 37.9922C303.672 38.5488 303.493 38.957 303.134 39.2168C302.775 39.4642 302.392 39.5879 301.983 39.5879C301.6 39.5879 301.303 39.5199 301.093 39.3838C300.882 39.2354 300.728 39.0622 300.629 38.8643C300.542 38.654 300.456 38.3633 300.369 37.9922C300.27 37.5221 300.146 37.1387 299.998 36.8418C299.862 36.5449 299.602 36.2852 299.219 36.0625C298.835 35.8398 298.285 35.7161 297.567 35.6914C296.615 35.6543 295.724 35.8893 294.896 36.3965C294.067 36.8913 293.399 37.6335 292.892 38.623C292.397 39.6126 292.149 40.8001 292.149 42.1855C292.149 43.472 292.378 44.6533 292.836 45.7295C293.294 46.8057 293.962 47.6654 294.84 48.3086C295.73 48.9518 296.794 49.2734 298.031 49.2734C299.107 49.2734 300.004 49.1436 300.722 48.8838C301.439 48.624 302.181 48.1911 302.948 47.585L303.542 48.0117ZM310.222 41.7402C310.209 41.8639 310.203 42.0433 310.203 42.2783C310.203 43.8369 310.481 45.1419 311.038 46.1934C311.607 47.2324 312.362 48.0055 313.302 48.5127C314.254 49.0075 315.318 49.2549 316.493 49.2549C318.052 49.2549 319.555 48.8096 321.002 47.9189L321.54 48.4385C321.243 49.1559 320.742 49.7744 320.037 50.2939C319.344 50.8135 318.553 51.2093 317.662 51.4814C316.784 51.7412 315.93 51.8711 315.102 51.8711C313.543 51.8711 312.139 51.5062 310.89 50.7764C309.653 50.0465 308.682 49.026 307.977 47.7148C307.284 46.4036 306.938 44.9007 306.938 43.2061C306.938 41.4867 307.315 39.9528 308.069 38.6045C308.824 37.2438 309.826 36.1924 311.075 35.4502C312.337 34.6956 313.685 34.3184 315.12 34.3184C316.295 34.3184 317.353 34.5596 318.293 35.042C319.245 35.512 320.019 36.18 320.612 37.0459C321.206 37.8994 321.583 38.8828 321.744 39.9961C321.88 40.5651 321.948 41.0908 321.948 41.5732V41.7402H310.222ZM316.901 40.5527C317.446 40.528 317.903 40.429 318.274 40.2559C318.188 38.7839 317.841 37.6335 317.235 36.8047C316.642 35.9759 315.794 35.5615 314.693 35.5615C313.889 35.5615 313.172 35.8027 312.541 36.2852C311.923 36.7676 311.422 37.4108 311.038 38.2148C310.655 39.0065 310.407 39.8786 310.296 40.8311L316.901 40.5527Z" fill="#F1F1F1"/>
</svg>
