<svg width="112" height="44" viewBox="0 0 112 44" fill="none" xmlns="http://www.w3.org/2000/svg">
<path d="M10.1 28.5H13.6L8.84 14.5H4.76L0 28.5H3.5L4.2 26.3H9.4L10.1 28.5ZM5.16 23.3L6.8 18.16L8.44 23.3H5.16ZM21.6608 14.5V19.44C21.0008 18.68 20.0208 18.22 18.6808 18.22C16.0608 18.22 13.9008 20.52 13.9008 23.5C13.9008 26.48 16.0608 28.78 18.6808 28.78C20.0208 28.78 21.0008 28.32 21.6608 27.56V28.5H24.6608V14.5H21.6608ZM19.2808 25.94C17.9008 25.94 16.9008 25 16.9008 23.5C16.9008 22 17.9008 21.06 19.2808 21.06C20.6608 21.06 21.6608 22 21.6608 23.5C21.6608 25 20.6608 25.94 19.2808 25.94ZM31.6617 28.78C34.6017 28.78 36.9617 26.48 36.9617 23.5C36.9617 20.52 34.6017 18.22 31.6617 18.22C28.7217 18.22 26.3617 20.52 26.3617 23.5C26.3617 26.48 28.7217 28.78 31.6617 28.78ZM31.6617 25.86C30.3617 25.86 29.3617 24.92 29.3617 23.5C29.3617 22.08 30.3617 21.14 31.6617 21.14C32.9617 21.14 33.9617 22.08 33.9617 23.5C33.9617 24.92 32.9617 25.86 31.6617 25.86ZM44.6386 18.22C43.2986 18.22 42.3186 18.68 41.6586 19.44V14.5H38.6586V28.5H41.6586V27.56C42.3186 28.32 43.2986 28.78 44.6386 28.78C47.2586 28.78 49.4186 26.48 49.4186 23.5C49.4186 20.52 47.2586 18.22 44.6386 18.22ZM44.0386 25.94C42.6586 25.94 41.6586 25 41.6586 23.5C41.6586 22 42.6586 21.06 44.0386 21.06C45.4186 21.06 46.4186 22 46.4186 23.5C46.4186 25 45.4186 25.94 44.0386 25.94ZM53.7995 24.7H60.8995C60.9795 24.32 61.0195 23.92 61.0195 23.5C61.0195 20.48 58.8595 18.22 55.9395 18.22C52.7795 18.22 50.6195 20.52 50.6195 23.5C50.6195 26.48 52.7395 28.78 56.1595 28.78C58.0595 28.78 59.5395 28.08 60.5195 26.72L58.1195 25.34C57.7195 25.78 57.0195 26.1 56.1995 26.1C55.0995 26.1 54.1795 25.74 53.7995 24.7ZM53.7395 22.46C54.0195 21.44 54.7795 20.88 55.9195 20.88C56.8195 20.88 57.7195 21.3 58.0395 22.46H53.7395Z" fill="#F1F1F1"/>
<path d="M104.208 44H75.7917C71.4833 44 68 40.4274 68 36.0085V7.99145C68 3.57265 71.4833 0 75.7917 0H104.208C108.517 0 112 3.57265 112 7.99145V36.0085C112 40.4274 108.517 44 104.208 44Z" fill="#FF26BE"/>
<path d="M103.489 42.1093H76.4652C72.7985 42.1093 69.8102 39.0444 69.8102 35.2837V8.69564C69.8102 4.93495 72.7985 1.87 76.4652 1.87H103.47C107.155 1.87 110.125 4.93495 110.125 8.69564V35.2649C110.144 39.0444 107.155 42.1093 103.489 42.1093Z" fill="#2E001F"/>
<path d="M85.3984 20.5897L90.5318 30.7059C90.6234 30.8564 90.5684 31.0068 90.4218 31.0068H87.2318C87.0301 31.0068 86.9384 30.9504 86.8468 30.7623C85.6734 28.2803 84.4818 25.7982 83.2534 23.1282H83.2168C82.1168 25.6478 80.9068 28.2991 79.7334 30.7811C79.6418 30.9316 79.5501 30.988 79.4034 30.988H76.3784C76.1951 30.988 76.1768 30.8376 76.2684 30.7247L81.2918 20.9094L76.4334 10.9811C76.3234 10.8307 76.4334 10.7179 76.5434 10.7179H79.6968C79.8801 10.7179 79.9534 10.7555 80.0268 10.9247C81.1818 13.4068 82.3551 15.9641 83.4551 18.4649H83.4918C84.5551 15.9829 85.7284 13.4068 86.8651 10.9435C86.9568 10.7931 87.0118 10.6991 87.1951 10.6991H90.1468C90.2934 10.6991 90.3484 10.8119 90.2568 10.9623L85.3984 20.5897ZM91.4301 23.6547C91.4301 19.2735 94.2718 15.8512 98.7818 15.8512C99.1668 15.8512 99.3684 15.8512 99.7351 15.8888V10.9059C99.7351 10.7931 99.8268 10.7179 99.9184 10.7179H102.815C102.962 10.7179 102.998 10.7743 102.998 10.8683V28.1299C102.998 28.6376 102.998 29.2769 103.09 29.9726C103.09 30.0854 103.053 30.123 102.943 30.1794C101.403 30.9316 99.7901 31.27 98.2501 31.27C94.2718 31.2888 91.4301 28.7692 91.4301 23.6547ZM99.7351 18.841C99.4784 18.7282 99.1118 18.6529 98.6718 18.6529C96.3618 18.6529 94.7484 20.4769 94.7484 23.5042C94.7484 26.9641 96.3984 28.3555 98.4701 28.3555C98.9101 28.3555 99.3868 28.2991 99.7351 28.1487V18.841Z" fill="#FFD9F2"/>
</svg>
