<svg width="15" height="14" viewBox="0 0 15 14" fill="none" xmlns="http://www.w3.org/2000/svg">
<path d="M7.12069 1.1665C5.96697 1.1665 4.83915 1.50862 3.87986 2.1496C2.92058 2.79057 2.1729 3.70161 1.73139 4.76752C1.28988 5.83342 1.17436 7.00631 1.39944 8.13786C1.62452 9.26942 2.18009 10.3088 2.9959 11.1246C3.81171 11.9404 4.85111 12.496 5.98266 12.7211C7.11422 12.9462 8.28711 12.8306 9.35301 12.3891C10.4189 11.9476 11.33 11.1999 11.9709 10.2407C12.6119 9.28138 12.954 8.15356 12.954 6.99984C12.954 6.23379 12.8031 5.47525 12.51 4.76752C12.2168 4.05978 11.7872 3.41672 11.2455 2.87505C10.7038 2.33337 10.0607 1.90369 9.35301 1.61054C8.64528 1.31739 7.88673 1.1665 7.12069 1.1665ZM7.12069 11.6665C6.19771 11.6665 5.29546 11.3928 4.52803 10.88C3.7606 10.3672 3.16246 9.63841 2.80925 8.78569C2.45604 7.93297 2.36363 6.99466 2.54369 6.08942C2.72376 5.18417 3.16821 4.35265 3.82086 3.70001C4.4735 3.04736 5.30502 2.6029 6.21027 2.42284C7.11551 2.24277 8.05382 2.33519 8.90655 2.6884C9.75927 3.04161 10.4881 3.63975 11.0009 4.40718C11.5137 5.1746 11.7874 6.07686 11.7874 6.99984C11.7874 8.23751 11.2957 9.4245 10.4205 10.2997C9.54535 11.1748 8.35837 11.6665 7.12069 11.6665Z" fill="#4451C6"/>
<path d="M6.25737 6.8715C6.44766 6.83283 6.61795 6.72763 6.73768 6.57476C6.85741 6.42188 6.91876 6.23135 6.91071 6.03734C6.91071 5.454 6.46154 5.104 5.77904 5.104H4.20404V8.89567H5.77904C6.53737 8.8665 7.12071 8.47567 7.12071 7.799C7.12618 7.68111 7.10806 7.56332 7.06742 7.45252C7.02677 7.34173 6.96442 7.24016 6.88401 7.15377C6.8036 7.06739 6.70676 6.99792 6.59915 6.94945C6.49155 6.90098 6.37535 6.87448 6.25737 6.8715ZM4.93904 5.64067H5.60987C5.95987 5.64067 6.16404 5.82734 6.16404 6.1365C6.16404 6.44567 5.94237 6.65567 5.43487 6.65567H4.93904V5.64067ZM5.52237 8.3065H4.93904V7.17484H5.65654C6.09404 7.17484 6.33904 7.3965 6.33904 7.75817C6.33904 8.11984 6.09404 8.3065 5.49904 8.3065H5.52237Z" fill="#4451C6"/>
<path d="M8.72493 6.00815C8.54805 5.99342 8.37008 6.01712 8.20322 6.07762C8.03635 6.13812 7.88455 6.23399 7.75822 6.35866C7.63188 6.48334 7.53401 6.63386 7.4713 6.7999C7.4086 6.96595 7.38254 7.14359 7.39493 7.32065V7.58315C7.38057 7.76528 7.40617 7.94834 7.46994 8.11954C7.53371 8.29073 7.63412 8.44593 7.76413 8.57428C7.89414 8.70262 8.05062 8.80101 8.22263 8.86257C8.39463 8.92413 8.57801 8.94736 8.75993 8.93065C9.04788 8.96486 9.33825 8.8906 9.57442 8.72237C9.8106 8.55413 9.97566 8.30397 10.0374 8.02065H9.3316C9.29509 8.14199 9.21592 8.24603 9.10871 8.31358C9.0015 8.38112 8.87348 8.40761 8.74827 8.38815C8.65909 8.39039 8.57047 8.37348 8.48837 8.33857C8.40628 8.30366 8.33263 8.25155 8.27237 8.18577C8.21212 8.11999 8.16667 8.04206 8.13908 7.95722C8.11149 7.87239 8.1024 7.78263 8.11243 7.69399V7.61232H10.0374V7.33815C10.0512 7.1615 10.0268 6.98395 9.96594 6.81754C9.90508 6.65113 9.80918 6.49973 9.68472 6.37361C9.56026 6.24749 9.41015 6.14959 9.24456 6.08654C9.07896 6.02349 8.90176 5.99676 8.72493 6.00815ZM9.30827 7.17482H8.12993C8.12262 7.09392 8.13229 7.01238 8.15831 6.93544C8.18433 6.85849 8.22614 6.78782 8.28106 6.72796C8.33597 6.66811 8.40278 6.62038 8.47721 6.58784C8.55163 6.5553 8.63204 6.53866 8.71327 6.53899C8.7945 6.53866 8.8749 6.5553 8.94933 6.58784C9.02375 6.62038 9.09056 6.66811 9.14548 6.72796C9.20039 6.78782 9.2422 6.85849 9.26822 6.93544C9.29425 7.01238 9.30391 7.09392 9.2966 7.17482H9.30827Z" fill="#4451C6"/>
<path d="M7.84991 5.3667H9.59991V5.65837H7.84991V5.3667Z" fill="#4451C6"/>
</svg>
