<svg width="15" height="14" viewBox="0 0 15 14" fill="none" xmlns="http://www.w3.org/2000/svg">
<g clip-path="url(#clip0_47_126)">
<path d="M9.45404 4.6665C10.3823 4.6665 11.2725 5.03525 11.9289 5.69163C12.5853 6.34801 12.954 7.23825 12.954 8.1665V12.2498H10.6207V8.1665C10.6207 7.85708 10.4978 7.56034 10.279 7.34155C10.0602 7.12275 9.76346 6.99984 9.45404 6.99984C9.14462 6.99984 8.84788 7.12275 8.62908 7.34155C8.41029 7.56034 8.28737 7.85708 8.28737 8.1665V12.2498H5.95404V8.1665C5.95404 7.23825 6.32279 6.34801 6.97917 5.69163C7.63554 5.03525 8.52578 4.6665 9.45404 4.6665V4.6665Z" stroke="#4451C6" stroke-width="1.16667" stroke-linecap="round" stroke-linejoin="round"/>
<path d="M3.62069 5.25H1.28735V12.25H3.62069V5.25Z" stroke="#4451C6" stroke-width="1.16667" stroke-linecap="round" stroke-linejoin="round"/>
<path d="M2.45402 3.49984C3.09835 3.49984 3.62069 2.9775 3.62069 2.33317C3.62069 1.68884 3.09835 1.1665 2.45402 1.1665C1.80969 1.1665 1.28735 1.68884 1.28735 2.33317C1.28735 2.9775 1.80969 3.49984 2.45402 3.49984Z" stroke="#4451C6" stroke-width="1.16667" stroke-linecap="round" stroke-linejoin="round"/>
</g>
<defs>
<clipPath id="clip0_47_126">
<rect width="14" height="14" fill="white" transform="translate(0.120667)"/>
</clipPath>
</defs>
</svg>
