<svg width="25" height="24" viewBox="0 0 25 24" fill="none" xmlns="http://www.w3.org/2000/svg">
<g clip-path="url(#clip0_47_124)">
<path d="M23.1207 2.9998C22.1631 3.67528 21.1028 4.19191 19.9807 4.5298C19.3784 3.83731 18.578 3.34649 17.6877 3.12373C16.7974 2.90096 15.8602 2.957 15.0027 3.28426C14.1453 3.61151 13.4091 4.1942 12.8936 4.95352C12.3782 5.71283 12.1084 6.61214 12.1207 7.5298V8.5298C10.3633 8.57537 8.62194 8.18561 7.05168 7.39525C5.48141 6.60488 4.13098 5.43844 3.12067 3.9998C3.12067 3.9998 -0.879333 12.9998 8.12067 16.9998C6.06119 18.3978 3.60782 19.0987 1.12067 18.9998C10.1207 23.9998 21.1207 18.9998 21.1207 7.4998C21.1197 7.22126 21.093 6.9434 21.0407 6.6698C22.0613 5.6633 22.7815 4.39251 23.1207 2.9998V2.9998Z" stroke="white" stroke-width="2" stroke-linecap="round" stroke-linejoin="round"/>
</g>
<defs>
<clipPath id="clip0_47_124">
<rect width="24" height="24" fill="white" transform="translate(0.120667)"/>
</clipPath>
</defs>
</svg>
