<svg width="41" height="8" viewBox="0 0 41 8" fill="none" xmlns="http://www.w3.org/2000/svg">
<path fill-rule="evenodd" clip-rule="evenodd" d="M39.6982 5.53991C39.5742 5.46649 39.4759 5.456 39.3946 5.59593C38.0011 8.06283 35.6544 6.83114 35.8896 6.93961C36.4111 6.74371 37.7789 5.84785 37.5737 4.60567C37.4498 3.8464 36.6547 3.51045 35.8084 3.63293C34.3336 3.84289 33.7951 5.14454 34.0686 6.29578C34.1157 6.49519 34.2011 6.65616 34.291 6.81713C32.6281 7.92635 31.9657 5.82687 31.8886 5.57495C31.8844 5.56095 33.1753 4.68267 33.5343 2.5867C33.9105 0.392694 33.0556 -0.0097049 32.1793 0.00430104C30.5594 0.0287315 30.1233 2.7966 30.7089 5.10259C30.6619 5.11301 30.431 5.21803 30.0635 5.22858C29.7984 4.54625 28.6657 3.94783 28.3708 4.17877C27.6312 4.75615 28.5503 5.88289 29.2001 5.97032C28.811 7.93339 26.3746 7.44695 26.8276 4.98709C27.6184 3.78335 28.2255 1.98828 28.1143 0.907077C28.0758 0.525655 27.7296 0.0113363 26.9473 0.0357667C25.4427 0.0847555 25.2803 2.85262 25.4555 4.81914C25.447 4.77016 25.3616 5.05705 24.7459 5.20057C24.6006 4.53922 23.2969 3.8709 22.9892 4.19278C22.4164 4.79113 23.4123 5.8584 23.8826 5.93182C23.4936 7.89489 21.0571 7.40852 21.5102 4.94865C22.3053 3.74485 22.908 1.9533 22.8011 0.872093C22.7626 0.490672 22.4164 -0.0237109 21.6341 0.000847466C20.1295 0.0497723 19.9671 2.81758 20.1424 4.78416C20.1338 4.73511 20.0483 5.03256 19.4071 5.17255C19.3858 4.31173 18.0778 3.91982 17.7615 4.19278C17.2015 4.68267 17.8897 5.68687 18.5266 5.93182C18.1377 7.89489 15.7012 7.40852 16.1543 4.94865C16.9451 3.74485 17.552 1.94978 17.4409 0.868576C17.4067 0.490672 17.0605 -0.0237109 16.2782 0.000847466C14.7736 0.0497723 14.654 2.95757 14.8292 4.92409C14.3333 6.6632 12.6706 8.83265 12.8885 4.48319C12.9099 4.17877 12.9313 4.06334 12.7475 3.94784C12.6065 3.86041 12.2902 3.90236 12.1191 3.90582C11.9097 3.91285 11.8542 4.01428 11.8113 4.16477C11.7045 4.55674 11.6831 4.9381 11.666 5.45945C11.6575 5.7044 11.6318 5.81638 11.5164 6.14881C11.401 6.48118 10.7513 7.08657 10.3923 6.98514C9.89643 6.84515 10.0588 5.70088 10.1528 4.91361C10.2299 4.29082 9.9819 4.01428 9.34932 3.91285C8.97737 3.84992 8.75088 3.86041 8.3662 3.75885C7.99854 3.66439 7.91737 3.09757 7.1394 3.28655C6.71198 3.3915 6.9855 4.12985 6.88292 4.67921C6.37854 7.37699 5.33128 7.45047 4.84402 6.14178C7.03253 1.74686 5.4723 0.0147262 4.56191 0.0147262C3.61292 0.0147262 2.52722 0.550213 2.98457 3.97936C2.7623 3.92686 2.69394 3.89885 2.44597 3.89885C1.06527 3.89533 0.120667 4.81217 0.120667 5.94231C0.120667 7.07257 1.06527 7.98941 2.45027 7.98941C3.26668 7.98941 3.83949 7.68493 4.27542 7.21601C4.55761 7.54851 4.90386 7.99632 5.53644 7.97541C7.41729 7.91586 7.96432 4.75615 8.02846 4.57765C8.2294 4.60215 8.42174 4.6512 8.60557 4.6757C8.9133 4.71413 8.93901 4.81563 8.93041 5.06761C8.84916 7.21601 9.33221 7.96837 10.4308 7.96837C11.042 7.96837 11.5892 7.47496 11.9653 7.12507C12.2474 7.60095 12.6919 7.95436 13.2947 7.96837C14.748 7.99632 15.308 6.09982 15.2566 6.34822C15.2181 6.54424 15.7268 7.95436 17.2272 7.9614C19.0823 7.96837 19.4285 6.2993 19.467 6.01937C19.4755 5.97032 19.4713 5.96335 19.467 6.01937V6.03683C20.0569 5.94582 20.3603 5.69039 20.3603 5.69039C20.3603 5.69039 20.8348 7.98941 22.5831 7.96492C24.3998 7.93691 24.7459 6.42874 24.7887 6.13481C24.7973 6.07188 24.793 6.06478 24.7887 6.13481V6.14178C25.4898 5.93182 25.6736 5.72544 25.6736 5.72544C25.6736 5.72544 26.0498 7.97892 27.8963 7.99984C29.542 8.01736 30.1532 6.63518 30.1575 6.05787C30.4354 6.06126 30.9483 5.92139 30.9355 5.91442C30.9355 5.91442 31.5382 7.8844 33.2223 7.98589C34.0131 8.03482 34.6072 7.62193 34.945 7.43301C35.74 7.9614 38.3859 8.63324 40.0572 6.3133C40.2966 5.98432 39.7879 5.58896 39.6982 5.53991ZM2.38191 7.22305C1.57394 7.22305 1.05676 6.61075 1.05676 5.95286C1.05676 5.29503 1.53129 4.68267 2.33918 4.68267C2.70246 4.68267 2.90332 4.71413 3.1898 4.91712C3.24113 5.08161 3.38644 5.46297 3.45902 5.63795C3.553 5.86889 3.66847 6.06836 3.77964 6.28177C3.61292 6.83466 3.08285 7.22305 2.38191 7.22305ZM4.34816 4.93465C4.31394 4.88911 4.32253 4.91712 4.28402 4.8751C4.1387 4.54625 3.8523 3.81136 3.81808 2.97509C3.77964 2.0303 3.97199 0.921083 4.5405 0.921083C4.92519 0.921083 5.33558 3.16753 4.34816 4.93465ZM15.7225 3.95135C15.6328 3.3915 15.6285 0.889554 16.3595 0.959583C16.7656 1.09254 16.103 3.45098 15.7225 3.95135ZM21.0784 3.95135C20.9887 3.3915 20.9845 0.889554 21.7155 0.959583C22.1215 1.09254 21.4589 3.45098 21.0784 3.95135ZM26.3917 3.98634C26.3019 3.42648 26.2976 0.9246 27.0286 0.994502C27.4346 1.12407 26.7721 3.48596 26.3917 3.98634ZM32.2563 0.809099C32.9274 0.753075 32.8975 3.15007 31.5553 4.66169C31.38 4.11584 31.1151 0.998019 32.2563 0.809099ZM35.0775 5.97032C34.8637 5.07809 35.4194 4.49368 35.9922 4.43069C36.1931 4.40626 36.4838 4.51121 36.5393 4.71062C36.6334 5.08507 36.5265 5.64147 35.2399 6.3447C35.2442 6.34822 35.1245 6.16634 35.0775 5.97032ZM12.3414 3.21997C12.7988 3.21997 13.1706 2.91555 13.1706 2.54117C13.1706 2.16678 12.7988 1.86236 12.3414 1.86236C11.8841 1.86236 11.5121 2.16678 11.5121 2.54117C11.5121 2.91555 11.8841 3.21997 12.3414 3.21997Z" fill="white"/>
</svg>
