<svg width="60" height="60" viewBox="0 0 60 60" fill="none" xmlns="http://www.w3.org/2000/svg">
<path d="M50.8182 5H9.58182C7.05036 5 5 7.05036 5 9.58182V50.8182C5 53.3496 7.05036 55.4 9.58182 55.4H50.8182C53.3496 55.4 55.4 53.3496 55.4 50.8182V9.58182C55.4 7.05036 53.3496 5 50.8182 5ZM47.478 43.9455H33.8907V43.1826L37.0727 40.3831V24.404L29.2584 43.9455H28.0374L19.3182 24.2505V38.1953L23.3044 43.1826V43.9455H12.922V43.1826L17.0433 38.1953V21.6045L13.3801 17.025C13.3801 17.025 13.3801 16.3629 13.3801 16.466H23.4052L31.192 33.3111L37.9089 16.466H47.4253V17.025L43.9455 19.9505V40.3831L47.478 43.1826V43.9455Z" fill="black"/>
</svg>
